<?xml version="1.0" encoding="UTF-8"?>
<svg id="Capa_2" data-name="Capa 2" xmlns="http://www.w3.org/2000/svg" viewBox="0 0 278.43 313.6">
  <defs>
    <style>
      .cls-1 {
        fill: #1d1d1b;
      }

      .cls-2 {
        fill: #575756;
      }

      .cls-3 {
        fill: #3c3c3b;
      }
    </style>
  </defs>
  <g id="Capa_1-2" data-name="Capa 1">
    <g>
      <g>
        <polygon class="cls-3" points="1.85 50.39 37.45 36.15 37.45 68.97 1.85 79.96 1.85 50.39"/>
        <polygon class="cls-3" points="53.33 29.79 127.82 0 127.82 41.08 53.33 64.07 53.33 29.79"/>
        <polygon class="cls-3" points="75.78 69.6 75.78 105.7 1.85 120.49 1.85 91.46 75.78 69.6"/>
        <polygon class="cls-3" points="37.45 124.79 1.85 131.45 1.85 162.12 37.45 158.71 37.45 124.79"/>
        <polygon class="cls-3" points="1.85 173.07 75.78 166.64 75.78 204.29 1.85 204.29 1.85 173.07"/>
        <polygon class="cls-3" points="127.82 107.89 127.82 150.07 53.33 157.19 53.33 121.82 127.82 107.89"/>
        <polygon class="cls-3" points="127.82 54.22 92.76 64.58 92.76 102.31 127.82 95.3 127.82 54.22"/>
        <polygon class="cls-3" points="127.82 162.12 127.82 204.29 92.76 204.29 92.76 165.16 127.82 162.12"/>
      </g>
      <g>
        <polygon class="cls-1" points="174.37 15.57 174.37 53.1 127.82 41.08 127.82 0 174.37 15.57"/>
        <polygon class="cls-1" points="127.82 54.22 219.83 76.97 219.83 110.69 127.82 95.3 127.82 54.22"/>
        <polygon class="cls-1" points="127.82 107.89 174.37 115.17 174.37 153.79 127.82 150.07 127.82 107.89"/>
        <polygon class="cls-1" points="219.83 168.81 219.83 204.29 127.82 204.29 127.82 162.12 219.83 168.81"/>
        <polygon class="cls-1" points="278.43 50.39 278.43 79.96 186.42 56.21 186.42 19.61 278.43 50.39"/>
        <polygon class="cls-1" points="231.92 79.96 278.43 91.46 278.43 120.49 231.88 112.7 231.92 79.96"/>
        <polygon class="cls-1" points="278.43 173.07 278.43 204.29 231.88 204.29 231.88 169.68 278.43 173.07"/>
        <polygon class="cls-1" points="186.42 117.06 186.42 154.75 278.43 162.12 278.43 131.45 186.42 117.06"/>
      </g>
      <g>
        <path class="cls-2" d="M17.72,290.98v4.02c-1.96-1.64-3.99-2.46-6.08-2.46-2.31,0-4.25,.83-5.83,2.49-1.59,1.65-2.39,3.67-2.39,6.05s.8,4.35,2.39,5.97c1.59,1.62,3.54,2.43,5.85,2.43,1.19,0,2.21-.19,3.04-.58,.47-.19,.95-.46,1.45-.79,.5-.33,1.03-.73,1.58-1.19v4.09c-1.94,1.1-3.98,1.64-6.11,1.64-3.21,0-5.95-1.12-8.22-3.36-2.26-2.26-3.39-4.99-3.39-8.18,0-2.86,.95-5.41,2.84-7.65,2.33-2.75,5.34-4.12,9.04-4.12,2.02,0,3.97,.55,5.85,1.64Z"/>
        <path class="cls-2" d="M20.73,300.9c0-3.16,1.16-5.88,3.48-8.15,2.31-2.27,5.08-3.4,8.32-3.4s5.95,1.14,8.24,3.43c2.3,2.29,3.45,5.04,3.45,8.25s-1.15,5.97-3.46,8.22c-2.32,2.26-5.12,3.39-8.39,3.39-2.9,0-5.5-1-7.81-3.01-2.54-2.22-3.81-5.13-3.81-8.73Zm3.42,.04c0,2.48,.83,4.52,2.5,6.13,1.66,1.6,3.57,2.4,5.75,2.4,2.36,0,4.35-.81,5.97-2.44,1.62-1.65,2.43-3.66,2.43-6.02s-.8-4.4-2.4-6.02c-1.59-1.63-3.56-2.44-5.91-2.44s-4.31,.81-5.92,2.44c-1.61,1.61-2.42,3.6-2.42,5.97Z"/>
        <path class="cls-2" d="M48.48,312.24v-23.99l16.38,17.14v-15.61h3.39v23.83l-16.38-17.1v15.73h-3.39Z"/>
        <path class="cls-2" d="M86.34,293.12l-2.75,1.63c-.51-.89-1-1.47-1.47-1.75-.49-.31-1.11-.47-1.88-.47-.94,0-1.72,.27-2.34,.8-.62,.52-.93,1.18-.93,1.98,0,1.1,.81,1.98,2.44,2.65l2.24,.92c1.82,.74,3.16,1.64,4,2.7s1.27,2.36,1.27,3.91c0,2.07-.69,3.77-2.07,5.12-1.39,1.36-3.11,2.04-5.17,2.04-1.95,0-3.56-.58-4.83-1.73-1.25-1.15-2.03-2.78-2.34-4.87l3.43-.76c.16,1.32,.43,2.23,.81,2.74,.7,.97,1.72,1.45,3.06,1.45,1.06,0,1.94-.35,2.63-1.06,.7-.71,1.05-1.61,1.05-2.69,0-.44-.06-.84-.18-1.2-.12-.36-.31-.7-.57-1-.26-.31-.59-.59-1-.86-.41-.27-.89-.52-1.45-.76l-2.17-.9c-3.08-1.3-4.61-3.2-4.61-5.7,0-1.69,.64-3.1,1.94-4.23,1.29-1.14,2.9-1.72,4.82-1.72,2.59,0,4.61,1.26,6.07,3.78Z"/>
        <path class="cls-2" d="M97.63,292.96v19.28h-3.39v-19.28h-5.17v-3.19h13.71v3.19h-5.15Z"/>
        <path class="cls-2" d="M113.41,302.66l6.95,9.57h-4.15l-6.42-9.2h-.61v9.2h-3.39v-22.46h3.97c2.97,0,5.11,.56,6.43,1.67,1.46,1.24,2.18,2.88,2.18,4.92,0,1.59-.46,2.96-1.37,4.1-.91,1.14-2.11,1.88-3.61,2.2Zm-4.22-2.58h1.08c3.21,0,4.82-1.23,4.82-3.68,0-2.3-1.56-3.45-4.68-3.45h-1.21v7.13Z"/>
        <path class="cls-2" d="M126.8,289.77v13.53c0,1.93,.32,3.34,.95,4.23,.94,1.29,2.26,1.94,3.97,1.94s3.05-.64,3.99-1.94c.63-.86,.95-2.27,.95-4.23v-13.53h3.39v14.46c0,2.37-.74,4.32-2.21,5.85-1.66,1.71-3.7,2.56-6.11,2.56s-4.45-.85-6.1-2.56c-1.47-1.53-2.21-3.48-2.21-5.85v-14.46h3.39Z"/>
        <path class="cls-2" d="M162.02,290.98v4.02c-1.96-1.64-3.99-2.46-6.08-2.46-2.31,0-4.25,.83-5.83,2.49-1.59,1.65-2.39,3.67-2.39,6.05s.8,4.35,2.39,5.97c1.59,1.62,3.54,2.43,5.85,2.43,1.19,0,2.21-.19,3.04-.58,.47-.19,.95-.46,1.45-.79,.5-.33,1.03-.73,1.58-1.19v4.09c-1.94,1.1-3.98,1.64-6.11,1.64-3.21,0-5.95-1.12-8.22-3.36-2.26-2.26-3.39-4.99-3.39-8.18,0-2.86,.95-5.41,2.84-7.65,2.33-2.75,5.34-4.12,9.04-4.12,2.02,0,3.97,.55,5.85,1.64Z"/>
        <path class="cls-2" d="M182.9,290.98v4.02c-1.96-1.64-3.99-2.46-6.08-2.46-2.31,0-4.25,.83-5.83,2.49-1.59,1.65-2.39,3.67-2.39,6.05s.8,4.35,2.39,5.97c1.59,1.62,3.54,2.43,5.85,2.43,1.19,0,2.21-.19,3.04-.58,.47-.19,.95-.46,1.45-.79,.5-.33,1.03-.73,1.58-1.19v4.09c-1.94,1.1-3.98,1.64-6.11,1.64-3.21,0-5.95-1.12-8.22-3.36-2.26-2.26-3.39-4.99-3.39-8.18,0-2.86,.95-5.41,2.84-7.65,2.33-2.75,5.34-4.12,9.04-4.12,2.02,0,3.97,.55,5.85,1.64Z"/>
        <path class="cls-2" d="M190.57,289.77v22.46h-3.39v-22.46h3.39Z"/>
        <path class="cls-2" d="M194.85,300.9c0-3.16,1.16-5.88,3.48-8.15,2.31-2.27,5.08-3.4,8.32-3.4s5.95,1.14,8.23,3.43c2.3,2.29,3.45,5.04,3.45,8.25s-1.15,5.97-3.46,8.22c-2.32,2.26-5.12,3.39-8.39,3.39-2.9,0-5.5-1-7.81-3.01-2.54-2.22-3.81-5.13-3.81-8.73Zm3.42,.04c0,2.48,.83,4.52,2.5,6.13,1.66,1.6,3.57,2.4,5.75,2.4,2.36,0,4.35-.81,5.97-2.44,1.62-1.65,2.43-3.66,2.43-6.02s-.8-4.4-2.4-6.02c-1.59-1.63-3.56-2.44-5.91-2.44s-4.31,.81-5.92,2.44c-1.61,1.61-2.42,3.6-2.42,5.97Z"/>
        <path class="cls-2" d="M222.59,312.24v-23.99l16.38,17.14v-15.61h3.39v23.83l-16.38-17.1v15.73h-3.39Z"/>
        <path class="cls-2" d="M260.15,292.96h-9.01v5.4h8.74v3.19h-8.74v7.51h9.01v3.19h-12.4v-22.46h12.4v3.19Z"/>
        <path class="cls-2" d="M277.3,293.12l-2.75,1.63c-.51-.89-1-1.47-1.47-1.75-.49-.31-1.11-.47-1.88-.47-.94,0-1.72,.27-2.34,.8-.62,.52-.93,1.18-.93,1.98,0,1.1,.81,1.98,2.44,2.65l2.24,.92c1.82,.74,3.16,1.64,4,2.7,.84,1.06,1.27,2.36,1.27,3.91,0,2.07-.69,3.77-2.07,5.12-1.39,1.36-3.11,2.04-5.16,2.04-1.95,0-3.56-.58-4.83-1.73-1.25-1.15-2.03-2.78-2.34-4.87l3.43-.76c.15,1.32,.43,2.23,.81,2.74,.7,.97,1.72,1.45,3.06,1.45,1.06,0,1.94-.35,2.63-1.06,.7-.71,1.05-1.61,1.05-2.69,0-.44-.06-.84-.18-1.2-.12-.36-.31-.7-.57-1s-.59-.59-1-.86c-.41-.27-.89-.52-1.45-.76l-2.17-.9c-3.08-1.3-4.61-3.2-4.61-5.7,0-1.69,.65-3.1,1.94-4.23,1.29-1.14,2.9-1.72,4.82-1.72,2.59,0,4.61,1.26,6.07,3.78Z"/>
      </g>
      <g>
        <path class="cls-1" d="M29.12,231.16H10.37v12.75H28.46v7.52H10.37v25.25H2.26v-53.04H29.12v7.52Z"/>
        <path class="cls-1" d="M66.19,249.06h22.23v1.75c0,3.98-.48,7.51-1.43,10.58-.93,2.84-2.5,5.5-4.7,7.97-4.99,5.54-11.35,8.31-19.06,8.31s-13.97-2.68-19.34-8.04c-5.37-5.38-8.05-11.84-8.05-19.38s2.73-14.22,8.19-19.58c5.46-5.38,12.1-8.07,19.93-8.07,4.2,0,8.13,.85,11.78,2.54,3.48,1.7,6.91,4.44,10.28,8.25l-5.78,5.46c-4.41-5.79-9.79-8.69-16.13-8.69-5.69,0-10.46,1.94-14.32,5.81-3.86,3.8-5.78,8.57-5.78,14.29s2.15,10.78,6.45,14.6c4.02,3.55,8.37,5.32,13.06,5.32,3.99,0,7.58-1.33,10.77-3.98,3.18-2.68,4.96-5.89,5.33-9.62h-13.41v-7.52Z"/>
        <path class="cls-1" d="M116.84,254.08l16.65,22.61h-9.93l-15.36-21.71h-1.46v21.71h-8.12v-53.04h9.51c7.11,0,12.24,1.32,15.4,3.95,3.48,2.93,5.23,6.8,5.23,11.61,0,3.76-1.09,6.99-3.27,9.69-2.18,2.7-5.06,4.43-8.64,5.19Zm-10.1-6.08h2.58c7.69,0,11.53-2.9,11.53-8.69,0-5.43-3.74-8.14-11.22-8.14h-2.89v16.83Z"/>
      </g>
      <g>
        <path class="cls-3" d="M185.98,231.54l-6.58,3.85c-1.23-2.11-2.4-3.48-3.52-4.12-1.16-.73-2.66-1.1-4.49-1.1-2.25,0-4.12,.63-5.61,1.89-1.49,1.24-2.23,2.79-2.23,4.67,0,2.59,1.95,4.67,5.85,6.25l5.37,2.16c4.37,1.74,7.56,3.86,9.58,6.37,2.02,2.51,3.03,5.58,3.03,9.22,0,4.88-1.65,8.91-4.95,12.09-3.32,3.21-7.44,4.81-12.37,4.81-4.67,0-8.52-1.36-11.57-4.09-3-2.73-4.87-6.56-5.61-11.51l8.22-1.79c.37,3.12,1.02,5.27,1.95,6.46,1.67,2.29,4.11,3.44,7.32,3.44,2.53,0,4.63-.84,6.31-2.51,1.67-1.67,2.51-3.79,2.51-6.36,0-1.03-.15-1.98-.44-2.83-.29-.86-.74-1.65-1.36-2.37-.62-.72-1.41-1.4-2.39-2.03-.98-.63-2.14-1.23-3.48-1.8l-5.19-2.13c-7.36-3.07-11.04-7.56-11.04-13.47,0-3.99,1.54-7.32,4.63-10,3.09-2.7,6.93-4.05,11.53-4.05,6.2,0,11.04,2.98,14.53,8.93Z"/>
        <path class="cls-3" d="M205.28,255.14v21.54h-8.12v-53.04h9.2c4.51,0,7.91,.31,10.21,.93,2.32,.62,4.37,1.79,6.13,3.5,3.09,2.98,4.63,6.73,4.63,11.27,0,4.86-1.65,8.7-4.95,11.54-3.3,2.84-7.75,4.26-13.34,4.26h-3.76Zm0-7.42h3.03c7.46,0,11.18-2.83,11.18-8.49s-3.84-8.21-11.53-8.21h-2.68v16.7Z"/>
        <path class="cls-3" d="M263.35,263.8h-23.03l-5.99,12.88h-8.74l26.62-56.38,25.68,56.38h-8.88l-5.64-12.88Zm-3.31-7.52l-7.98-18.04-8.36,18.04h16.34Z"/>
      </g>
    </g>
  </g>
</svg>