<?xml version="1.0" encoding="UTF-8"?>
<svg id="Capa_2" data-name="Capa 2" xmlns="http://www.w3.org/2000/svg" viewBox="0 0 285.51 136.26">
  <defs>
    <style>
      .cls-1 {
        fill: #1d1d1b;
      }
    </style>
  </defs>
  <g id="Capa_1-2" data-name="Capa 1">
    <g>
      <path class="cls-1" d="M270.83,31.65c4.95-10.65,9.81-21.12,14.68-31.59-.26-.11-.4-.03-.55,.02-9.04,2.99-18.07,5.97-27.12,8.94-.46,.15-.71,.39-.9,.8-1.25,2.74-2.54,5.45-3.76,8.2-.31,.71-.71,.91-1.47,.91-11.15-.02-22.3-.02-33.45-.02h0s-3.73,0-3.73,0c-.3,0-.6,0-.9,0,0,0,0,0-.01,0h-15.72c-.12-.02-.24-.03-.4-.03-1.21,.02-2.41,.02-3.62,.03h-3.96c-.99,0-1.98,0-2.97-.02-.07,0-.13,.01-.19,.02h-7.41c-.05,0-.09-.01-.15-.01-11.94,.02-23.87,.01-35.81,0-.11,0-.22,0-.32,0h-4.73c-.07,0-.14,0-.21,0-8.15,.01-16.3,0-24.45,0-19.96,0-39.92,0-59.88,0-.1,0-.19,0-.28,.01h-11.13c-.09,0-.17,0-.26,0-7.37,.02-14.73,0-22.1,0-3.66,0-6.95,2.61-7.76,6.18-.32,1.4-.54,2.82-.8,4.23-.96,5.3-1.93,10.6-2.86,15.91-.26,1.51-.72,3.01-.61,4.56,.15,2.16,1.2,3.84,3.01,5.14-2.22,1.77-3.41,4.07-3.83,6.8-.22,1.42-.49,2.83-.74,4.24-.82,4.6-1.63,9.19-2.45,13.79-.83,4.6-1.67,9.19-2.5,13.79-.48,2.67-.95,5.34-1.44,8-.12,.65,.02,.91,.77,.88,1.74-.06,3.48-.02,5.23-.02,3.16,0,6.31,0,9.47,0,0,0,0,0,.01,0h0s.15,0,.15,0c.14,.01,.28,.03,.41,0h51.81c11.55,0,23.1,0,34.65,.01,.06,0,.1-.01,.15-.01h17.98c.11,.02,.23,.03,.37,.03,2.51-.02,5.03-.02,7.54-.03h11.12c10.75,0,21.49,0,32.24,0,.64,0,1.28,0,1.92,0h6.06c.14,.01,.3,.02,.47,.01,1.32,0,2.64-.01,3.96-.01h5.55c1.6,0,3.2,0,4.79,.02,.13,0,.23,0,.33-.02h27.08c3.99,0,7.98,0,11.97,0,.61,0,.9,.01,.67,.8-2.61,9.02-5.18,18.04-7.76,27.07-.56,1.97-1.1,3.94-1.65,5.91,.05,.02,.1,.04,.15,.06,16.56-26.33,33.11-52.65,49.82-79.22-3.14,.91-6.02,1.74-9.09,2.63,4.25-9.88,8.4-19.55,12.59-29.29-2.7,.43-5.25,.84-7.95,1.27Zm-83.67-6.97c1.14-2.15,1.11-2.17,3.49-2.17,1.31,0,2.63,.03,3.94,0,.61-.02,.94,.13,1.08,.81,1.33,6.17,2.69,12.33,4.04,18.5,.6,2.73,1.21,5.45,1.81,8.18,.11,.51,.22,1.02,.34,1.52,.12,.56,.02,.86-.67,.83-.95-.05-1.91-.01-2.86-.01-.79,0-1.58-.07-2.36,.02-.92,.09-1.45-.17-1.49-1.15,0-.06-.06-.12-.07-.18-.06-.32-.09-.67-.12-1.02-.08-.77-.19-1.53-.71-1.89-.7-.48-1.96-.16-2.98-.17-2.63-.01-5.26,.02-7.89-.02-.7-.01-1.05,.25-1.34,.85-.2,.41-.42,.82-.64,1.22-.33,.6-.66,1.21-.97,1.82-.21,.42-.51,.52-.95,.52-1.94-.01-3.88-.02-5.82,0-.74,.01-.74-.24-.43-.79,.29-.52,.57-1.04,.85-1.56,2.39-4.34,4.77-8.69,7.13-13.04,2.22-4.08,4.42-8.16,6.6-12.26Zm-34.87,26.88c.1-.53,.19-1.05,.29-1.58,.62-3.37,1.22-6.74,1.83-10.1,.54-2.99,1.11-5.98,1.65-8.97,.25-1.37-.39-2.11-1.84-2.12-2.76-.02-5.52,0-8.28,0-.39,0-.78,0-1.24,0,.36-1.95,.71-3.77,1.03-5.6,.09-.5,.29-.7,.84-.7,9.3,.02,18.61,.03,27.91,0,.86,0,1.01,.37,.88,1.07-.26,1.45-.54,2.89-.79,4.34-.11,.65-.37,.91-1.1,.9-2.79-.05-5.59-.02-8.38-.02-1.88,0-2.63,.8-2.91,2.67-.46,3.14-1.04,6.26-1.59,9.39-.54,3.05-1.1,6.09-1.63,9.13-.09,.5-.18,1-.26,1.5-.1,.6-.27,.86-.91,.84-1.61-.03-3.22-.02-4.83,0-.57,0-.79-.07-.66-.76Zm-10.91-25.19c-.52,3.22-1.12,6.43-1.6,9.66-.31,2.1-1.52,3.33-3.5,4.08,1.97,.89,2.29,2.25,1.93,4.46-.3,1.81-.62,3.61-.94,5.41-.1,.55-.2,1.1-.29,1.65-.07,.44-.14,.71-.7,.7-1.74-.03-3.48-.01-5.23,0-.49,0-.58-.09-.48-.62,.12-.58,.22-1.16,.33-1.74,.3-1.6,.58-3.21,.88-4.82,.17-.94-.46-1.8-1.43-1.81-4.57-.02-9.14,0-13.71-.01-1.14,0-1.71,.79-1.94,2.01-.29,1.54-.57,3.08-.84,4.63-.05,.29-.11,.58-.16,.88q-.26,1.47-1.74,1.46c-1.32,0-2.63-.05-3.94,.02-.84,.05-.94-.31-.81-.98,.08-.46,.17-.92,.25-1.38,.33-1.79,.66-3.59,.98-5.38,.91-5.05,1.81-10.1,2.72-15.15,.2-1.12,.4-2.25,.65-3.36,.49-2.19,2.19-3.57,4.44-3.57,7.3-.01,14.6-.01,21.9,0,2.45,0,3.64,1.43,3.25,3.86Zm-65.45,22.25c1.06-5.82,2.12-11.64,3.17-17.46,.31-1.71,.5-3.44,.88-5.13,.35-1.58,1.91-3.48,3.84-3.49,4.27-.02,8.55,0,12.82,0v-.05c4.21,0,8.41,.01,12.62-.01,.84,0,1.06,.17,.83,1.07-.35,1.39-.53,2.83-.7,4.26-.09,.78-.4,.99-1.19,.99-6.61-.04-13.21-.02-19.82-.02-1.96,0-2.62,.54-2.98,2.47-.13,.71-.16,1.45-.39,2.12-.29,.84,.05,.94,.76,.93,5.19-.02,10.39-.01,15.58-.01,.39,0,.79,0,1.18,0,1.28,0,1.29,0,1.03,1.29-.28,1.37-.69,2.72-.75,4.13-.04,.76-.47,.91-1.17,.91-5.65-.03-11.31,0-16.96-.04-.81,0-1.09,.28-1.17,1.02-.09,.88-.33,1.74-.39,2.62-.09,1.24,.41,1.71,1.68,1.72,6.77,0,13.54,.02,20.31,0,.83,0,1.15,.09,.92,1.05-.24,.98-.41,1.99-.57,2.99-.08,.5-.15,1-.22,1.5-.08,.62-.28,.85-.91,.85-8.48-.02-16.96,0-25.44-.02-1.63,0-2.71-.94-2.96-2.32-.07-.42-.08-.87,0-1.35Zm-22.37-26.1c3.68-.07,7.36-.02,11.04-.02,4.6,0,9.2,0,13.81,0,1.23,0,1.19,.03,.92,1.22-.32,1.4-.6,2.82-.77,4.24-.08,.71-.36,.82-.99,.82-6.64-.02-13.28,0-19.92,0-1.98,0-2.64,.49-3.06,2.39-.18,.83-.27,1.68-.43,2.52-.11,.53,.14,.62,.58,.61,1.31-.01,2.63,0,3.94,0,4.47,0,8.94,.02,13.41-.02,.76,0,.87,.23,.74,.87-.3,1.54-.58,3.08-.84,4.63-.11,.68-.44,.85-1.12,.85-5.62-.03-11.24,0-16.86-.03-.79,0-1.21,.1-1.35,1.04-.42,2.79-.93,5.56-1.41,8.34-.09,.53-.19,1.05-.27,1.58-.1,.6-.31,.77-.87,.77-1.84-.02-3.68,0-5.67,0,.14-.78,.29-1.55,.43-2.34,1.03-5.6,2.06-11.13,3.07-16.66,.44-2.42,.73-4.87,1.29-7.25,.49-2.07,1.88-3.49,4.33-3.54ZM11.72,48.29c1.27-7.02,2.59-14.03,3.84-21.05,.25-1.39,.55-2.69,1.67-3.64,.76-.65,1.65-1.08,2.66-1.08,5.41,0,10.81,0,16.22,0,2.16,0,4.31,0,6.47,0,1.93,0,3.19,1.72,2.84,3.67-.55,3.05-1.04,6.11-1.58,9.16-.76,4.32-1.5,8.65-2.34,12.96-.12,.64-.31,1.19-.53,1.67-.78,1.63-2.18,2.33-4.42,2.33-.14,0-.29,0-.43,0-3.37,0-6.75,0-10.12,0-3.49,0-6.98,0-10.46,0-.16,0-.32,0-.49,0-.76,0-1.5-.04-2.16-.51-1.28-.89-1.39-2.18-1.15-3.52Zm4.24,34.91c-.14,.84-.3,1.67-.44,2.5-.57,3.23-1.18,6.45-1.77,9.67-.16,.87-.35,1.73-.45,2.61-.06,.49-.26,.71-.73,.71-2.53,.01-5.06,.03-7.59,.04-.52,0-.63-.23-.53-.76,.5-2.67,1.05-5.33,1.46-8,.72-4.78,1.71-9.52,2.45-14.3,.75-4.78,1.67-9.53,2.58-14.28,.44-2.29,2.32-4.11,4.59-4.74,.55-.15,1.11-.25,1.69-.26,6.02,0,12.03,0,18.05,0,.28,0,.56,0,.84,0,5.7,0,11.41,.02,17.11-.02,.85,0,1.03,.2,.88,1,0,0,0,.02,0,.02-.49,2.43-.94,4.88-1.35,7.33-.1,.58-.31,.78-.88,.77-1.28-.03-2.56,0-3.85,0-8.61,0-17.23,.02-25.84-.01-1.82,0-3.27,.92-3.53,3-.15,1.24-.38,2.46-.62,3.68-.13,.69,0,1.03,.88,1.03,8.09-.04,16.18-.02,24.26-.02,.3,0,.59,.01,.89,0,.55-.03,.8,.03,.64,.75-.53,2.4-1,4.81-1.37,7.23-.13,.85-.49,.97-1.21,.96-2.1-.03-4.21-.01-6.31-.01-6.18,0-12.36,.02-18.54-.02-.87,0-1.14,.25-1.29,1.13Zm37.81,15.53c-1.52,0-2.92-.26-3.95-1.56-.71-.9-1.06-1.89-.87-2.99,.67-3.97,1.39-7.94,2.09-11.91,.76-4.35,1.5-8.7,2.27-13.05,.7-3.95,1.42-7.91,2.13-11.86,.02-.12,.04-.25,.07-.37,.1-.54,.43-.62,.92-.62,2.43,.02,4.87,.05,7.3-.02,.89-.03,.95,.36,.83,1,0,.01,0,.03,0,.04-.32,1.7-.65,3.4-.96,5.11-.54,2.99-1.06,5.98-1.6,8.96-.96,5.3-1.94,10.59-2.91,15.88-.19,1.04,.51,2.14,1.57,2.41,.38,.1,.78,.12,1.17,.12,9.6,0,19.2,0,28.81,0,.26,0,.53,.01,.79,.02,.4,0,.57,.12,.49,.6-.47,2.54-.91,5.09-1.35,7.64-.08,.47-.37,.52-.78,.52-4.14,0-8.28,.04-12.42,.05-1.97,0-3.95,0-5.92,0h0c-5.89,0-11.77,0-17.66,0Zm74.29,0c-1.28,0-2.57-.06-3.85,.02-.96,.06-1.39-.37-1.57-1.22-.27-1.25-.63-2.48-.79-3.74-.12-.92-.54-1.25-1.38-1.24-.23,0-.46-.03-.69-.03-4.7,0-9.4,.01-14.11-.02-.78,0-1.28,.23-1.65,.94-.78,1.5-1.63,2.97-2.43,4.46-.28,.51-.69,.79-1.25,.79-2.85,.01-5.71,0-8.56,.02-.65,0-.75-.21-.45-.76,1.72-3.19,3.43-6.39,5.15-9.58,1.35-2.51,2.72-5,4.08-7.51,3.42-6.3,6.83-12.61,10.25-18.91,.83-1.52,1.67-3.04,2.47-4.57,.06-.12,.13-.24,.19-.36,.25-.49,.55-.63,1.07-.63,2.93,.02,5.85,.03,8.78,0,.62,0,.83,.2,.95,.78,.01,.07,.03,.14,.04,.21,1.18,5.66,2.37,11.32,3.58,16.98,.91,4.29,1.86,8.57,2.77,12.86,.78,3.64,1.53,7.3,2.32,10.94,.14,.63-.29,.56-.61,.57-1.44,.02-2.88,0-4.32,0Zm47.77-.24c-.41,.16-.84,.14-1.26,.14-6.05,0-12.1,0-18.15,0,0,.03,0,.05,0,.08-5.69,0-11.37,0-17.06,0-.29,0-.59-.07-.88-.07-1.42,.03-1.48-.07-1.21-1.45,.39-2.06,.76-4.12,1.09-6.19,.12-.75,.36-1.12,1.23-1.12,9.5,.03,19,0,28.5,.04,2.37,.01,4.11-.52,4.52-3.74,.07-.52,.18-1.03,.26-1.54,.21-1.45-.7-2.48-2.3-2.54-1.15-.04-2.3-.01-3.45-.01-7.36,0-14.73,0-22.09-.01-2.39,0-3.94-1.41-4.23-3.77-.1-.85,.16-1.68,.31-2.51,.84-4.74,1.67-9.48,2.55-14.21,.34-1.85,1.43-3.32,2.91-4.22,1-.61,2.18-.96,3.46-.96,12-.03,24-.01,36-.02,.62,0,1,.04,.83,.84,0,.05-.02,.09-.03,.14-.47,2.35-.92,4.7-1.3,7.06-.13,.79-.36,1.07-1.23,1.07-9.83-.04-19.66-.02-29.49-.02-1.79,0-2.92,.92-3.3,2.69-.18,.86-.36,1.73-.51,2.6-.21,1.26,.83,2.36,2.27,2.37,1.87,.02,3.75,0,5.62,0,6.57,0,13.15,0,19.73,0,3.11,0,4.86,2.13,4.35,5.22-.38,2.3-1.04,4.56-1.35,6.85-.35,2.63-.87,5.22-1.32,7.83-.45,2.63-1.98,4.44-4.47,5.42Zm57.56-41.34c-.98,5.3-1.9,10.62-2.91,15.91-1.25,6.53-2.21,13.11-3.57,19.61-.36,1.73-.66,3.47-.94,5.22-.09,.6-.32,.85-.94,.85-.98,0-1.96,0-2.94,0-1.42,0-2.84,0-4.26,0-.68,0-.91-.21-.78-.95,.8-4.41,1.55-8.82,2.3-13.24,.2-1.19-.49-2.15-1.67-2.35-.45-.08-.91-.11-1.37-.11-5.82,0-11.64,0-17.45,0-2.46,0-3.58,.87-4.02,3.26-.59,3.22-1.09,6.46-1.7,9.67-.17,.87-.34,1.73-.46,2.6-.09,.71-.46,1.02-1.26,1.01-2.2-.03-4.4,0-6.6,.1-.97,.05-1.21-.32-1.06-1.18,.34-1.93,.67-3.87,1.02-5.8,1.16-6.51,2.32-13.02,3.48-19.52,.88-4.93,1.76-9.85,2.6-14.78,0-.04,.01-.07,.02-.1,.14-.72,.41-1.03,1.27-1,2.33,.08,4.67,.04,7,.01,.7,0,1.01,0,.83,.94,0,.02,0,.03,0,.05-.82,4.34-1.52,8.71-2.27,13.06-.29,1.68,.56,2.72,2.3,2.72,3.12,.01,6.25,0,9.37,0,3.09,0,6.18,0,9.27,0,1.86,0,3.07-1.03,3.39-2.84,.02-.13,.05-.27,.07-.4,.75-4.28,1.52-8.56,2.25-12.85,.08-.47,.16-.68,.69-.68,2.6,.02,5.19,.03,7.79,0,.62,0,.68,.21,.57,.76Zm-3.11-4.79c-2.73-.08-5.46-.06-8.2-.05-1.27,0-2.55,.01-3.82,.01-.04,0-.08,0-.12,0h0c-4.18,0-8.35-.02-12.53,.02-.87,0-1.06-.2-.85-1.06,.1-.43,.18-.87,.27-1.3,.21-1.01,.39-2.02,.51-3.04,.1-.82,.42-1.01,1.19-1,3.84,.01,7.68,0,11.52,0,2.8,0,5.6,0,8.4,0,1.99,0,2.53-.45,2.92-2.41,.06-.32,.1-.65,.16-.97,.25-1.23-.32-1.95-1.58-1.96-3.3,0-6.6,0-9.9,0-2.45,0-4.91,0-7.36,0-2.67,0-3.91-1.35-3.47-3.98,.6-3.62,1.28-7.22,1.98-10.82,.38-1.91,2.32-3.29,4.53-3.29,1.44,0,2.88,0,4.31,0,6.32,0,12.64,0,18.97,0,.07,0,.13,0,.2,0q2.23,.01,1.86,2.24c-.18,1.03-.41,2.06-.55,3.09-.1,.71-.39,.96-1.14,.96-6.44-.03-12.89-.02-19.33-.02-.2,0-.4,0-.59,0-2.26,0-4.01,2.69-3.08,4.78,.29,.66,.96,.74,1.6,.74,.69,0,1.38,0,2.07,0,1.05,0,2.1,0,3.15,0,4.18,0,8.35,0,12.53,0,2.07,0,3.38,1.53,3.02,3.55-.62,3.49-1.36,6.97-1.87,10.48-.32,2.22-2.85,4.08-4.82,4.03Zm36.87,10.83c-10.34,16.35-20.5,32.44-30.83,48.78-.11-.88-.06-1.47,.14-2.04,.85-2.43,1.46-4.94,2.19-7.4,.62-2.09,1.27-4.17,1.87-6.26,.79-2.74,1.53-5.49,2.31-8.24,.9-3.22,1.82-6.43,2.73-9.64,.07-.25,.25-.52,.04-.74-.19-.2-.51-.2-.75-.09-1.97,.92-4.13,1.18-6.19,1.79-.81,.24-1.62,.44-2.63,.7,.81-1.85,1.54-3.52,2.28-5.18,3.25-7.28,6.49-14.56,9.74-21.84,.36-.81,.75-1.6,1.09-2.42,.11-.27,.45-.62,.13-.88-.25-.2-.61-.1-.97,.04-2.17,.81-4.37,1.52-6.82,2.12,.89-1.93,1.7-3.71,2.52-5.47,2.31-4.99,4.64-9.97,6.95-14.97,1.86-4.01,3.68-8.04,5.54-12.05,.93-2.01,2.11-3.92,2.81-6,.45-1.33,1.41-1.52,2.36-1.82,3.13-.98,6.22-2.06,9.34-3.08,2.1-.69,4.22-1.3,6.29-2.08,.31-.11,.78-.33,1.01-.05,.28,.33-.18,.63-.32,.94-1.29,2.76-2.6,5.52-3.88,8.3-1.26,2.74-2.48,5.49-3.74,8.23-1.74,3.81-3.5,7.62-5.25,11.43-.13,.29-.23,.6-.41,1.08,2.7-.42,5.27-.83,8.08-1.27-4.34,10.14-8.61,20.09-12.96,30.25,2.48-.71,4.75-1.37,7.31-2.11Z"/>
      <path class="cls-1" d="M119.01,80.82c-.75-3.44-1.49-6.88-2.24-10.32l-.25-.05c-1.55,2.86-3.11,5.72-4.66,8.58-.71,1.3-1.43,2.58-2.12,3.88-.15,.28-.48,.7,.25,.7,3.02,0,6.04,0,9.06,.02,.47,0,.54-.19,.44-.61-.18-.73-.32-1.47-.48-2.21Z"/>
      <path class="cls-1" d="M132.66,28.8c-4.37-.02-8.74-.02-13.11,0-1.27,0-2.14,.84-2.35,2.09-.22,1.32-.45,2.64-.69,3.96-.25,1.4,.28,2.08,1.7,2.08,2.17,.01,4.34,0,6.51,0h0c2.2-.01,4.4,0,6.6-.02,1.12-.01,2.06-.77,2.27-1.81,.28-1.41,.56-2.83,.79-4.25,.21-1.29-.42-2.05-1.72-2.06Z"/>
      <path class="cls-1" d="M20.45,45.94c2.17,.01,4.34,0,6.5,0,2.2,0,4.4,0,6.6,0,1.36,0,2.14-.68,2.38-2,.05-.3,.11-.59,.16-.89,.73-3.97,1.46-7.94,2.18-11.92,.3-1.63-.27-2.35-1.97-2.36-.07,0-.15,0-.22,0-4.1-.01-8.2,0-12.3,0-1.58,0-2.41,.79-2.67,2.32-.74,4.29-1.5,8.57-2.27,12.84-.22,1.22,.35,1.99,1.59,1.99Z"/>
      <path class="cls-1" d="M185.87,41.6c1.51,0,3.02,0,4.52,0,1.96,0,1.99,0,1.6-1.93-.49-2.42-1.03-4.83-1.59-7.45-.21,.32-.29,.42-.36,.53-1.56,2.76-2.92,5.62-4.6,8.32-.32,.51,.07,.53,.42,.53Z"/>
    </g>
  </g>
</svg>