<?xml version="1.0" encoding="UTF-8"?>
<svg id="Capa_2" data-name="Capa 2" xmlns="http://www.w3.org/2000/svg" viewBox="0 0 938.84 288.98">
  <defs>
    <style>
      .cls-1 {
        fill: #1d1d1b;
      }
    </style>
  </defs>
  <g id="Capa_1-2" data-name="Capa 1">
    <g>
      <polygon class="cls-1" points="0 39.87 52.6 60.1 0 80.33 0 92.59 66.15 66.45 66.15 53.75 0 27.61 0 39.87"/>
      <polygon class="cls-1" points="106.32 65.71 165.68 65.71 165.68 111.78 180.44 111.78 180.44 8.42 165.68 8.42 165.68 52.86 106.32 52.86 106.32 8.42 91.55 8.42 91.55 111.78 106.32 111.78 106.32 65.71"/>
      <path class="cls-1" d="M216.47,18.46c2.85,0,5.17-.91,6.94-2.73,1.77-1.82,2.66-4.06,2.66-6.72s-.91-4.7-2.73-6.42c-1.82-1.72-4.11-2.58-6.87-2.58s-5.05,.89-6.87,2.66c-1.82,1.77-2.73,3.99-2.73,6.65s.91,4.72,2.73,6.5c1.82,1.77,4.11,2.66,6.87,2.66Z"/>
      <rect class="cls-1" x="209.38" y="33.52" width="14.18" height="78.26"/>
      <path class="cls-1" d="M325.45,101.15V33.52h-13.44v12c-2.91-3.73-6.45-6.62-10.63-8.68-5.51-2.71-11.62-4.06-18.31-4.06-7.58,0-14.35,1.58-20.3,4.72-5.96,3.15-10.68,7.56-14.18,13.22-3.49,5.66-5.24,12.28-5.24,19.86s1.75,14.08,5.24,19.79c3.49,5.71,8.22,10.17,14.18,13.36,5.96,3.2,12.72,4.8,20.3,4.8,6.69,0,12.8-1.4,18.31-4.21,3.84-1.95,7.13-4.6,9.89-7.92v6.22c0,8.86-2.17,15.45-6.5,19.79-4.33,4.33-11.13,6.5-20.38,6.5-5.81,0-11.37-.91-16.69-2.73-5.32-1.82-9.8-4.31-13.44-7.46l-6.79,10.93c4.23,3.74,9.72,6.62,16.46,8.64,6.74,2.02,13.71,3.03,20.9,3.03,13.29,0,23.38-3.25,30.27-9.75,6.89-6.5,10.34-16.64,10.34-30.42Zm-17.35-17.28c-2.31,3.84-5.49,6.84-9.52,9.01-4.04,2.17-8.66,3.25-13.88,3.25s-9.87-1.08-13.95-3.25c-4.09-2.16-7.29-5.17-9.6-9.01-2.31-3.84-3.47-8.27-3.47-13.29s1.16-9.45,3.47-13.29c2.31-3.84,5.51-6.81,9.6-8.93,4.08-2.12,8.73-3.18,13.95-3.18s9.84,1.06,13.88,3.18c4.03,2.12,7.21,5.09,9.52,8.93,2.31,3.84,3.47,8.27,3.47,13.29s-1.16,9.45-3.47,13.29Z"/>
      <path class="cls-1" d="M412.57,68.37v43.41h14.18v-45.04c0-7.68-1.38-14.03-4.13-19.05-2.76-5.02-6.57-8.76-11.44-11.22-4.87-2.46-10.51-3.69-16.91-3.69-7.09,0-13.29,1.43-18.61,4.28-3.66,1.97-6.65,4.48-9.01,7.52V2.22h-14.18V111.78h14.18v-40.31c0-5.71,1.01-10.48,3.03-14.32,2.02-3.84,4.9-6.74,8.64-8.71,3.74-1.97,8.12-2.95,13.14-2.95,6.69,0,11.89,1.92,15.58,5.76,3.69,3.84,5.54,9.55,5.54,17.13Z"/>
      <path class="cls-1" d="M543.99,83.87c0-5.91-1.33-10.85-3.99-14.84-2.66-3.99-6.25-7.01-10.78-9.08-1.5-.68-3.08-1.24-4.73-1.7,.05-.02,.1-.05,.15-.07,4.23-2.07,7.6-5.02,10.12-8.86,2.51-3.84,3.77-8.56,3.77-14.18,0-8.27-3.2-14.79-9.6-19.57-6.4-4.77-15.56-7.16-27.47-7.16h-46.37V111.78h49.32c13.09,0,22.96-2.44,29.61-7.31,6.65-4.87,9.97-11.74,9.97-20.6Zm-43.86-63.5c7.48,0,13.29,1.38,17.42,4.14,4.14,2.76,6.2,6.89,6.2,12.4s-2.07,9.65-6.2,12.4c-4.13,2.76-9.94,4.13-17.42,4.13h-30.27V20.38h30.27Zm22.44,75.31c-4.33,2.76-10.58,4.13-18.75,4.13h-33.96v-34.41h33.96c8.17,0,14.42,1.38,18.75,4.13,4.33,2.76,6.5,7.14,6.5,13.14s-2.17,10.24-6.5,13Z"/>
      <path class="cls-1" d="M578.39,46.69v-13.17h-13.58V111.78h14.18v-38.98c0-8.56,2.22-15.11,6.65-19.64,4.43-4.53,10.43-6.79,18.02-6.79h1.55c.54,0,1.11,.05,1.7,.15v-13.73c-7.48,0-13.78,1.43-18.9,4.28-4.2,2.34-7.39,5.56-9.6,9.62Z"/>
      <rect class="cls-1" x="624.32" y="33.52" width="14.18" height="78.26"/>
      <path class="cls-1" d="M631.41,0c-2.76,0-5.05,.89-6.87,2.66-1.82,1.77-2.73,3.99-2.73,6.65s.91,4.72,2.73,6.5c1.82,1.77,4.11,2.66,6.87,2.66s5.17-.91,6.94-2.73c1.77-1.82,2.66-4.06,2.66-6.72s-.91-4.7-2.73-6.42c-1.82-1.72-4.11-2.58-6.87-2.58Z"/>
      <path class="cls-1" d="M725.17,45.41c-2.65-3.43-5.8-6.17-9.45-8.2-5.32-2.95-11.27-4.43-17.87-4.43-7.58,0-14.35,1.67-20.3,5.02-5.96,3.35-10.66,8-14.1,13.96-3.45,5.96-5.17,12.92-5.17,20.89s1.72,14.96,5.17,20.97c3.44,6.01,8.14,10.68,14.1,14.03,5.96,3.35,12.72,5.02,20.3,5.02,6.79,0,12.85-1.5,18.16-4.5,3.83-2.16,7.07-5.09,9.75-8.75v12.37h13.59V2.22h-14.18V45.41Zm-3.32,41.78c-2.31,4.19-5.46,7.41-9.45,9.67-3.99,2.27-8.44,3.4-13.36,3.4s-9.5-1.13-13.44-3.4c-3.94-2.26-7.09-5.49-9.45-9.67-2.36-4.18-3.54-9.03-3.54-14.54s1.18-10.46,3.54-14.54c2.36-4.08,5.51-7.26,9.45-9.52,3.94-2.26,8.42-3.4,13.44-3.4s9.38,1.13,13.36,3.4c3.99,2.27,7.14,5.44,9.45,9.52,2.31,4.09,3.47,8.93,3.47,14.54s-1.16,10.36-3.47,14.54Z"/>
      <path class="cls-1" d="M827.65,45.52c-2.91-3.73-6.45-6.62-10.63-8.68-5.51-2.71-11.62-4.06-18.31-4.06-7.58,0-14.35,1.58-20.3,4.72-5.96,3.15-10.68,7.56-14.18,13.22-3.49,5.66-5.24,12.28-5.24,19.86s1.75,14.08,5.24,19.79c3.49,5.71,8.22,10.17,14.18,13.36,5.96,3.2,12.72,4.8,20.3,4.8,6.69,0,12.8-1.4,18.31-4.21,3.84-1.95,7.13-4.6,9.89-7.92v6.22c0,8.86-2.17,15.45-6.5,19.79-4.33,4.33-11.12,6.5-20.38,6.5-5.81,0-11.37-.91-16.69-2.73-5.32-1.82-9.8-4.31-13.44-7.46l-6.79,10.93c4.23,3.74,9.72,6.62,16.46,8.64,6.74,2.02,13.71,3.03,20.9,3.03,13.29,0,23.38-3.25,30.27-9.75,6.89-6.5,10.34-16.64,10.34-30.42V33.52h-13.44v12Zm-3.91,38.35c-2.31,3.84-5.49,6.84-9.52,9.01-4.04,2.17-8.66,3.25-13.88,3.25s-9.87-1.08-13.95-3.25c-4.09-2.16-7.29-5.17-9.6-9.01-2.31-3.84-3.47-8.27-3.47-13.29s1.16-9.45,3.47-13.29c2.31-3.84,5.51-6.81,9.6-8.93,4.08-2.12,8.73-3.18,13.95-3.18s9.84,1.06,13.88,3.18c4.03,2.12,7.21,5.09,9.52,8.93,2.31,3.84,3.47,8.27,3.47,13.29s-1.16,9.45-3.47,13.29Z"/>
      <path class="cls-1" d="M933.89,51.9c-3.3-6.05-7.85-10.75-13.66-14.1-5.81-3.35-12.5-5.02-20.08-5.02s-14.2,1.7-20.16,5.09c-5.96,3.4-10.63,8.1-14.03,14.1-3.4,6.01-5.09,12.9-5.09,20.67s1.75,14.67,5.24,20.67c3.49,6.01,8.42,10.73,14.77,14.18,6.35,3.45,13.71,5.17,22.08,5.17,6.5,0,12.38-1.08,17.65-3.25,5.27-2.16,9.67-5.32,13.22-9.45l-7.83-9.16c-2.86,3.15-6.18,5.51-9.97,7.09-3.79,1.58-8,2.36-12.63,2.36-5.61,0-10.58-1.13-14.91-3.4-4.33-2.26-7.7-5.44-10.12-9.52-1.78-3.01-2.9-6.34-3.36-9.97h63.54c.1-.69,.17-1.43,.22-2.22,.05-.79,.07-1.48,.07-2.07,0-8.07-1.65-15.14-4.95-21.19Zm-46.88-3.84c3.84-2.22,8.22-3.32,13.14-3.32s9.42,1.11,13.22,3.32c3.79,2.21,6.77,5.29,8.93,9.23,1.64,2.99,2.63,6.29,2.97,9.89h-50.3c.41-3.58,1.42-6.86,3.03-9.82,2.16-3.99,5.17-7.09,9.01-9.3Z"/>
      <rect class="cls-1" x="76.04" y="122.86" width="119.9" height="7.38"/>
      <path class="cls-1" d="M157.78,162.58c-8.42-4.33-18.14-6.5-29.16-6.5h-43.56v103.36h43.56c11.02,0,20.75-2.16,29.16-6.5,8.42-4.33,14.96-10.38,19.64-18.16,4.67-7.78,7.01-16.78,7.01-27.02s-2.34-19.24-7.01-27.02c-4.68-7.77-11.22-13.83-19.64-18.16Zm6.72,65.49c-3.45,5.86-8.29,10.41-14.55,13.66-6.25,3.25-13.66,4.87-22.22,4.87h-27.91v-77.67h27.91c8.56,0,15.97,1.62,22.22,4.87,6.25,3.25,11.1,7.78,14.55,13.58,3.44,5.81,5.17,12.6,5.17,20.38s-1.72,14.45-5.17,20.3Z"/>
      <path class="cls-1" d="M257.08,185.47c-5.81-3.35-12.5-5.02-20.08-5.02s-14.2,1.7-20.16,5.09c-5.96,3.4-10.63,8.1-14.03,14.1-3.4,6.01-5.09,12.9-5.09,20.67s1.75,14.67,5.24,20.67c3.49,6.01,8.42,10.73,14.77,14.18,6.35,3.45,13.71,5.17,22.08,5.17,6.5,0,12.38-1.08,17.65-3.25,5.27-2.16,9.67-5.32,13.22-9.45l-7.83-9.16c-2.86,3.15-6.18,5.51-9.97,7.09-3.79,1.57-8,2.36-12.63,2.36-5.61,0-10.58-1.13-14.91-3.4-4.33-2.26-7.7-5.44-10.12-9.52-1.78-3.01-2.9-6.34-3.36-9.97h63.54c.1-.69,.17-1.43,.22-2.22,.05-.79,.07-1.48,.07-2.07,0-8.07-1.65-15.14-4.95-21.19-3.3-6.05-7.85-10.75-13.66-14.1Zm-33.22,10.26c3.84-2.22,8.22-3.32,13.14-3.32s9.42,1.11,13.22,3.32c3.79,2.22,6.77,5.29,8.93,9.23,1.64,2.99,2.63,6.28,2.97,9.89h-50.3c.41-3.58,1.42-6.86,3.03-9.82,2.16-3.99,5.17-7.09,9.01-9.3Z"/>
      <path class="cls-1" d="M341.77,220.31c-2.91-1.48-6.13-2.63-9.67-3.47-3.54-.84-7.09-1.53-10.63-2.07-3.54-.54-6.77-1.2-9.67-1.99-2.9-.79-5.27-1.89-7.09-3.32-1.82-1.43-2.73-3.47-2.73-6.13,0-3.15,1.53-5.73,4.58-7.75,3.05-2.02,7.68-3.03,13.88-3.03,3.84,0,7.68,.44,11.52,1.33,3.84,.89,7.53,2.51,11.08,4.87l6.05-11.22c-3.35-2.26-7.66-4.01-12.92-5.24-5.27-1.23-10.46-1.85-15.58-1.85-6.7,0-12.48,.96-17.35,2.88-4.87,1.92-8.64,4.65-11.3,8.2-2.66,3.54-3.99,7.68-3.99,12.4s.89,8.15,2.66,10.85c1.77,2.71,4.14,4.83,7.09,6.35,2.95,1.53,6.2,2.71,9.75,3.54,3.54,.84,7.09,1.53,10.63,2.07,3.54,.54,6.77,1.16,9.67,1.85,2.9,.69,5.24,1.72,7.01,3.1,1.77,1.38,2.66,3.3,2.66,5.76,0,3.35-1.45,5.96-4.36,7.83-2.9,1.87-7.66,2.81-14.25,2.81-5.12,0-10.14-.79-15.06-2.36-4.92-1.57-9.06-3.49-12.4-5.76l-5.91,11.22c3.35,2.56,7.95,4.73,13.81,6.5,5.86,1.77,12.04,2.66,18.53,2.66,6.99,0,13-.96,18.02-2.88,5.02-1.92,8.91-4.6,11.67-8.05,2.75-3.45,4.14-7.53,4.14-12.26,0-4.43-.91-7.97-2.73-10.63-1.82-2.66-4.19-4.73-7.09-6.2Z"/>
      <path class="cls-1" d="M376.39,147.66c-2.76,0-5.05,.89-6.87,2.66-1.82,1.77-2.73,3.99-2.73,6.64s.91,4.73,2.73,6.5c1.82,1.77,4.11,2.66,6.87,2.66s5.17-.91,6.94-2.73c1.77-1.82,2.66-4.06,2.66-6.72s-.91-4.7-2.73-6.42c-1.82-1.72-4.11-2.58-6.87-2.58Z"/>
      <rect class="cls-1" x="369.3" y="181.18" width="14.18" height="78.26"/>
      <path class="cls-1" d="M471.93,193.18c-2.91-3.73-6.45-6.62-10.63-8.68-5.51-2.71-11.62-4.06-18.31-4.06-7.58,0-14.35,1.58-20.3,4.72-5.96,3.15-10.68,7.56-14.18,13.22-3.49,5.66-5.24,12.28-5.24,19.86s1.75,14.08,5.24,19.79c3.49,5.71,8.22,10.17,14.18,13.36,5.96,3.2,12.72,4.8,20.3,4.8,6.69,0,12.8-1.4,18.31-4.21,3.84-1.95,7.13-4.6,9.89-7.92v6.22c0,8.86-2.17,15.45-6.5,19.79-4.33,4.33-11.13,6.5-20.38,6.5-5.81,0-11.37-.91-16.69-2.73-5.32-1.82-9.8-4.31-13.44-7.46l-6.79,10.93c4.23,3.74,9.72,6.62,16.46,8.64,6.74,2.02,13.71,3.03,20.9,3.03,13.29,0,23.38-3.25,30.27-9.75,6.89-6.5,10.34-16.64,10.34-30.42v-67.63h-13.44v12Zm-3.91,38.35c-2.31,3.84-5.49,6.84-9.52,9.01-4.04,2.17-8.66,3.25-13.88,3.25s-9.87-1.08-13.95-3.25c-4.09-2.16-7.29-5.17-9.6-9.01-2.31-3.84-3.47-8.27-3.47-13.29s1.16-9.45,3.47-13.29c2.31-3.84,5.51-6.82,9.6-8.93,4.08-2.12,8.73-3.18,13.95-3.18s9.84,1.06,13.88,3.18c4.03,2.12,7.21,5.09,9.52,8.93,2.31,3.84,3.47,8.27,3.47,13.29s-1.16,9.45-3.47,13.29Z"/>
      <path class="cls-1" d="M571.08,184.14c-4.87-2.46-10.51-3.69-16.91-3.69-7.09,0-13.29,1.43-18.61,4.28-3.97,2.13-7.17,4.9-9.6,8.29v-11.83h-13.58v78.26h14.18v-40.31c0-5.71,1.01-10.48,3.03-14.32,2.02-3.84,4.9-6.74,8.64-8.71,3.74-1.97,8.12-2.95,13.14-2.95,6.69,0,11.89,1.92,15.58,5.76,3.69,3.84,5.54,9.55,5.54,17.13v43.41h14.18v-45.04c0-7.68-1.38-14.03-4.13-19.05-2.76-5.02-6.57-8.76-11.44-11.22Z"/>
    </g>
  </g>
</svg>