<?xml version="1.0" encoding="UTF-8"?>
<svg id="Capa_2" data-name="Capa 2" xmlns="http://www.w3.org/2000/svg" viewBox="0 0 378.72 134.95">
  <defs>
    <style>
      .cls-1 {
        fill: #1d1d1b;
      }
    </style>
  </defs>
  <g id="Capa_1-2" data-name="Capa 1">
    <g>
      <g>
        <g>
          <path class="cls-1" d="M60.57,89.03l-5.87-17.69h-7.34v17.69h-11.37V38.54h20.77c4.16,0,7.29,.62,9.39,1.87,2.1,1.25,3.51,3.02,4.22,5.32,.71,2.3,1.06,5.36,1.06,9.17,0,3.57-.39,6.62-1.17,9.14-.78,2.52-2.37,4.37-4.77,5.54l7.04,19.45h-11.96Zm-2.9-27.59c.9-.34,1.5-.97,1.8-1.87,.29-.9,.44-2.43,.44-4.59s-.14-3.75-.4-4.66c-.27-.9-.86-1.52-1.76-1.83-.91-.32-2.43-.48-4.59-.48h-5.8v13.94h5.72c2.15,0,3.68-.17,4.59-.51Z"/>
          <path class="cls-1" d="M106.66,89.03l-2.57-10.13h-14.9l-2.42,10.13h-11.45l13.5-50.49h16l13.43,50.49h-11.59Zm-9.83-40.22h-.44l-4.92,20.69h10.35l-4.99-20.69Z"/>
          <path class="cls-1" d="M129.7,89.03l-12.55-50.49h11.67l8.66,38.38h.59l8.44-38.38h11.52l-12.55,50.49h-15.78Z"/>
          <path class="cls-1" d="M163.38,89.03V38.54h11.45v50.49h-11.45Z"/>
          <path class="cls-1" d="M188.74,87.38c-2.62-1.49-4.26-3.89-4.92-7.19-.66-3.3-.99-8.77-.99-16.4s.33-13.1,.99-16.4c.66-3.3,2.3-5.7,4.92-7.19,2.62-1.49,6.98-2.24,13.1-2.24s10.55,.75,13.17,2.24c2.62,1.49,4.24,3.88,4.88,7.16,.64,3.28,.95,8.76,.95,16.44s-.32,13.16-.95,16.44c-.64,3.28-2.26,5.66-4.88,7.16-2.62,1.49-7.01,2.24-13.17,2.24s-10.48-.75-13.1-2.24Zm18.42-8.04c.9-.54,1.48-1.81,1.72-3.82,.24-2.01,.37-5.92,.37-11.74s-.12-9.74-.37-11.74c-.25-2.01-.82-3.28-1.72-3.82-.91-.54-2.68-.81-5.32-.81s-4.42,.27-5.32,.81c-.91,.54-1.48,1.81-1.72,3.82-.25,2.01-.37,5.92-.37,11.74s.12,9.74,.37,11.74c.24,2.01,.82,3.28,1.72,3.82,.9,.54,2.68,.81,5.32,.81s4.41-.27,5.32-.81Z"/>
          <path class="cls-1" d="M228.99,89.03V38.54h11.37v40.66h16.73v9.83h-28.11Z"/>
          <path class="cls-1" d="M290.41,89.03l-2.57-10.13h-14.9l-2.42,10.13h-11.45l13.5-50.49h16l13.43,50.49h-11.59Zm-9.83-40.22h-.44l-4.92,20.69h10.35l-4.99-20.69Z"/>
          <path class="cls-1" d="M307.36,38.54h21.5c4.5,0,7.86,1.05,10.09,3.16,2.23,2.1,3.34,5.28,3.34,9.54,0,3.57-.64,6.29-1.91,8.15-1.27,1.86-3.25,3.11-5.94,3.74v.29c2.94,.69,5.05,1.93,6.35,3.74,1.3,1.81,1.94,4.62,1.94,8.44,0,4.4-1.08,7.74-3.23,10.02-2.15,2.27-5.7,3.41-10.64,3.41h-21.5V38.54Zm21.35,19.89c.78-.29,1.32-.82,1.61-1.58,.29-.76,.44-1.9,.44-3.41,0-1.61-.14-2.79-.4-3.52-.27-.73-.78-1.23-1.54-1.5-.76-.27-1.97-.4-3.63-.4h-6.53v10.86h6.53c1.57,0,2.74-.15,3.52-.44Zm.4,20.69c.76-.29,1.28-.82,1.58-1.58,.29-.76,.44-1.97,.44-3.63s-.15-2.89-.44-3.67c-.29-.78-.83-1.32-1.61-1.61-.78-.29-1.98-.44-3.6-.44h-6.82v11.37h6.82c1.66,0,2.87-.15,3.63-.44Z"/>
        </g>
        <path class="cls-1" d="M189.36,134.95c-50.05,0-97.14-6.73-132.62-18.96C20.15,103.37,0,86.14,0,67.47S20.15,31.58,56.74,18.96C92.22,6.73,139.31,0,189.36,0s97.14,6.73,132.62,18.96c36.59,12.61,56.74,29.84,56.74,48.51s-20.15,35.9-56.74,48.51c-35.47,12.23-82.57,18.96-132.62,18.96Zm0-128.24c-49.32,0-95.64,6.6-130.43,18.6C25.74,36.75,6.71,52.12,6.71,67.47s19.03,30.73,52.22,42.17c34.79,11.99,81.11,18.6,130.43,18.6s95.64-6.6,130.43-18.6c33.18-11.44,52.22-26.81,52.22-42.17s-19.03-30.73-52.22-42.17C285,13.32,238.68,6.71,189.36,6.71Z"/>
      </g>
      <g>
        <path class="cls-1" d="M84.41,98.26h5.78v.29h-5.48v5.04h4.88v.29h-4.88v5.1h-.3v-10.71Z"/>
        <path class="cls-1" d="M95.91,108.98l4.44-11.2h.03l4.44,11.2h-.34l-4.21-10.7,.2-.05-4.26,10.74h-.31Zm1.85-4.29h5.23l.03,.27h-5.29l.03-.27Z"/>
        <path class="cls-1" d="M114.28,98.26c1.01,0,1.78,.21,2.32,.63,.54,.42,.81,1.12,.81,2.1,0,.41-.07,.8-.21,1.17-.14,.38-.35,.7-.64,.96s-.67,.44-1.15,.52v-.11c.45,.06,.86,.21,1.25,.44s.7,.54,.95,.92c.24,.38,.37,.81,.37,1.31,0,.46-.09,.86-.27,1.2-.18,.34-.43,.63-.73,.86s-.65,.41-1.05,.53-.8,.18-1.21,.18h-2.55v-10.71h2.12Zm.38,5.2c.86,0,1.49-.23,1.87-.69,.38-.46,.57-1.05,.57-1.76,0-.88-.25-1.52-.76-1.89-.51-.38-1.19-.56-2.04-.56h-1.83v4.91h2.2Zm.02,5.23c.54,0,1.03-.09,1.49-.27,.45-.18,.82-.46,1.09-.82s.41-.81,.41-1.35c0-.58-.15-1.06-.46-1.43s-.69-.64-1.14-.82c-.46-.17-.92-.26-1.39-.26h-2.21v4.94h2.21Z"/>
        <path class="cls-1" d="M127.67,98.26c.31,0,.64,.05,1,.15,.36,.1,.7,.26,1.02,.49,.32,.22,.58,.52,.79,.88,.2,.36,.3,.81,.3,1.33,0,.39-.06,.76-.18,1.12-.12,.36-.31,.68-.57,.97-.26,.29-.6,.51-1.01,.68-.42,.17-.93,.25-1.54,.25h-1.69v4.84h-.3v-10.71h2.2Zm-.24,5.58c.61,0,1.11-.08,1.5-.24,.39-.16,.7-.38,.92-.64,.22-.26,.38-.56,.48-.88,.1-.32,.15-.64,.15-.95,0-.38-.07-.72-.22-1.05-.15-.32-.35-.6-.6-.82-.25-.23-.55-.4-.89-.53-.34-.12-.7-.18-1.08-.18h-1.91v5.29h1.65Zm1.4,.02l3.07,5.11h-.35l-3.07-5.11h.35Z"/>
        <path class="cls-1" d="M139.47,98.26h.3v10.71h-.3v-10.71Z"/>
        <path class="cls-1" d="M155.57,108.32c-.26,.15-.55,.29-.85,.4-.3,.12-.62,.21-.95,.27-.34,.07-.69,.1-1.05,.1-.81,0-1.55-.14-2.22-.43-.67-.29-1.24-.68-1.72-1.17-.48-.5-.84-1.08-1.1-1.73-.25-.66-.38-1.35-.38-2.08,0-.77,.14-1.5,.42-2.17,.28-.67,.67-1.26,1.17-1.76,.5-.5,1.08-.9,1.74-1.18,.66-.28,1.37-.43,2.12-.43,.52,0,1.01,.07,1.49,.21s.92,.33,1.34,.57l-.15,.26c-.39-.23-.81-.42-1.26-.55s-.92-.2-1.41-.2c-.7,0-1.37,.14-1.99,.4-.63,.27-1.17,.65-1.64,1.13-.47,.48-.84,1.04-1.11,1.68-.27,.64-.4,1.32-.4,2.05,0,.68,.12,1.33,.36,1.95,.24,.62,.58,1.17,1.03,1.64,.45,.47,.98,.84,1.61,1.11,.63,.27,1.33,.4,2.11,.4,.5,0,.97-.07,1.42-.21,.45-.14,.86-.32,1.25-.54l.18,.26Z"/>
        <path class="cls-1" d="M162.23,108.98l4.44-11.2h.03l4.44,11.2h-.34l-4.21-10.7,.2-.05-4.26,10.74h-.31Zm1.85-4.29h5.23l.03,.27h-5.29l.03-.27Z"/>
        <path class="cls-1" d="M187.65,108.98v-10.71h2.46c1.02,0,1.89,.16,2.61,.49s1.31,.75,1.76,1.29c.45,.53,.78,1.11,.99,1.74,.21,.63,.31,1.24,.31,1.85,0,.81-.14,1.55-.42,2.2-.28,.66-.66,1.22-1.14,1.69s-1.03,.83-1.66,1.08c-.62,.25-1.27,.37-1.95,.37h-2.96Zm.3-.29h2.52c.68,0,1.32-.12,1.93-.35,.6-.23,1.14-.57,1.59-1.02,.46-.44,.82-.97,1.08-1.59,.26-.62,.4-1.32,.4-2.11,0-.58-.1-1.17-.3-1.76-.2-.6-.51-1.14-.95-1.64-.43-.5-.99-.9-1.69-1.2-.69-.3-1.53-.45-2.5-.45h-2.09v10.12Z"/>
        <path class="cls-1" d="M203.3,98.26h6.39v.29h-6.09v4.87h5.49v.29h-5.49v4.97h6.3v.29h-6.61v-10.71Z"/>
        <path class="cls-1" d="M226.68,108.98v-10.89h.02l5.07,7.2h-.14l5.07-7.2h.02v10.89h-.3v-10.15l.03,.12-4.73,6.67h-.03l-4.73-6.67,.05-.11v10.13h-.31Z"/>
        <path class="cls-1" d="M244.04,108.98l4.44-11.2h.03l4.44,11.2h-.34l-4.21-10.7,.2-.05-4.26,10.74h-.3Zm1.85-4.29h5.23l.03,.27h-5.29l.03-.27Z"/>
        <path class="cls-1" d="M265.29,99.03c-.29-.12-.66-.25-1.11-.37-.46-.13-.93-.19-1.4-.19-.78,0-1.41,.2-1.88,.6-.47,.4-.71,.9-.71,1.49,0,.45,.13,.82,.39,1.11,.26,.29,.6,.53,1.01,.73s.86,.39,1.33,.57c.37,.13,.73,.28,1.08,.44,.36,.16,.68,.36,.98,.59,.29,.23,.53,.51,.7,.85,.17,.34,.26,.75,.26,1.24,0,.62-.14,1.15-.43,1.6-.29,.45-.67,.79-1.16,1.04s-1.04,.37-1.65,.37-1.09-.07-1.54-.22c-.45-.15-.82-.31-1.11-.48-.29-.17-.51-.3-.64-.38l.15-.27c.21,.15,.48,.31,.81,.48,.33,.17,.68,.31,1.08,.43,.39,.12,.79,.18,1.2,.18,.5,0,.98-.1,1.43-.3s.83-.5,1.12-.9c.29-.4,.43-.91,.43-1.52s-.14-1.08-.43-1.44c-.29-.36-.65-.65-1.09-.87s-.91-.42-1.4-.6c-.36-.12-.7-.26-1.04-.4s-.64-.32-.91-.51c-.27-.19-.49-.43-.65-.7-.16-.27-.24-.6-.24-.98,0-.48,.13-.89,.38-1.25,.25-.36,.6-.64,1.03-.84,.43-.2,.92-.31,1.46-.31,.39,0,.84,.06,1.35,.17,.51,.11,.95,.25,1.32,.43l-.12,.23Z"/>
        <path class="cls-1" d="M272.42,108.98l4.44-11.2h.03l4.44,11.2h-.34l-4.21-10.7,.2-.05-4.26,10.74h-.3Zm1.85-4.29h5.23l.03,.27h-5.29l.03-.27Z"/>
        <path class="cls-1" d="M293.67,99.03c-.29-.12-.66-.25-1.11-.37-.46-.13-.93-.19-1.4-.19-.78,0-1.41,.2-1.88,.6-.47,.4-.71,.9-.71,1.49,0,.45,.13,.82,.39,1.11,.26,.29,.6,.53,1.01,.73s.86,.39,1.33,.57c.37,.13,.73,.28,1.08,.44,.36,.16,.68,.36,.98,.59,.29,.23,.53,.51,.7,.85,.17,.34,.26,.75,.26,1.24,0,.62-.14,1.15-.43,1.6-.29,.45-.67,.79-1.16,1.04s-1.04,.37-1.65,.37-1.09-.07-1.54-.22c-.45-.15-.82-.31-1.11-.48-.29-.17-.51-.3-.64-.38l.15-.27c.21,.15,.48,.31,.81,.48,.33,.17,.68,.31,1.08,.43,.39,.12,.79,.18,1.2,.18,.5,0,.98-.1,1.43-.3s.83-.5,1.12-.9c.29-.4,.43-.91,.43-1.52s-.14-1.08-.43-1.44c-.29-.36-.65-.65-1.09-.87s-.91-.42-1.4-.6c-.36-.12-.7-.26-1.04-.4s-.64-.32-.91-.51c-.27-.19-.49-.43-.65-.7-.16-.27-.24-.6-.24-.98,0-.48,.13-.89,.38-1.25,.25-.36,.6-.64,1.03-.84,.43-.2,.92-.31,1.46-.31,.39,0,.84,.06,1.35,.17,.51,.11,.95,.25,1.32,.43l-.12,.23Z"/>
      </g>
    </g>
  </g>
</svg>