<?xml version="1.0" encoding="UTF-8"?>
<svg id="Capa_2" data-name="Capa 2" xmlns="http://www.w3.org/2000/svg" viewBox="0 0 378.72 78.02">
  <defs>
    <style>
      .cls-1 {
        fill: #1d1d1b;
      }
    </style>
  </defs>
  <g id="Capa_1-2" data-name="Capa 1">
    <g>
      <rect class="cls-1" x="296.4" y="1.37" width="20.35" height="75.34"/>
      <path class="cls-1" d="M340.71,76.71h19.32v-31.91L378.72,1.37h-21.23l-3.66,11.17c-.72,2.18-1.36,4.28-1.93,6.29-.57,2.02-1.08,3.95-1.54,5.81-.46-1.85-.97-3.79-1.54-5.81-.57-2.02-1.21-4.11-1.93-6.29l-3.66-11.17h-21.23l18.69,43.43v31.91Z"/>
      <path class="cls-1" d="M276.69,9.47c-5.6-5.4-13.42-8.1-23.47-8.1h-17.57V76.71h19.03c10.51,0,18.41-2.9,23.71-8.69,6.21-6.8,9.32-16.44,9.32-28.94s-3.68-22.56-11.03-29.62Zm-20.69,49.04V20.15h.63c3.15,0,5.66,1.76,7.51,5.27,1.85,3.48,2.78,8.23,2.78,14.25,0,12.2-3.64,18.48-10.93,18.83Z"/>
      <path class="cls-1" d="M188.91,1.37l-18.1,75.34h21.03l1.66-9.56h13.71l1.51,9.56h21.03L213.79,1.37h-24.89Zm7.32,49.62l2.05-11.81,1.42-9.12c.03-.16,.1-.63,.2-1.42,.1-.78,.26-2.18,.49-4.2,.13-1.01,.25-1.94,.37-2.78,.11-.85,.2-1.61,.27-2.29l.63,7.12c.16,1.46,.29,2.68,.39,3.64,.1,.96,.18,1.72,.24,2.27,.62,4.94,.96,7.77,1.02,8.49,.1,.85,.16,1.29,.2,1.32l1.32,8.78h-8.59Z"/>
      <path class="cls-1" d="M18.1,1.25L0,76.59H12.35v-9.38h11.84v-29.91c-3.89-1.94-6.57-5.96-6.57-10.61,0-6.54,5.3-11.85,11.85-11.85s11.85,5.3,11.85,11.85c0,4.65-2.68,8.67-6.57,10.61v29.91h11.84v9.38h12.35L42.99,1.25H18.1Z"/>
      <path class="cls-1" d="M114.98,26.5c0-8.52-2.9-15.09-8.69-19.71-4.55-3.61-11.42-5.42-20.59-5.42h-20.84V76.71h20.25v-26.35l-.15-4.98c.36,1.04,.66,1.94,.9,2.68,.24,.75,.41,1.35,.51,1.81l10.05,26.84h22.01l-15.13-31.33c7.77-3.48,11.66-9.78,11.66-18.88Zm-22.54,7.08c-1.56,1.79-3.51,2.68-5.86,2.68h-1.37V18.3h.73c5.89,0,8.83,2.81,8.83,8.44,0,2.77-.78,5.04-2.34,6.83Z"/>
      <path class="cls-1" d="M150.36,57.09c-1.59-.88-2.94-2.15-4.03-3.81-1.09-1.66-1.93-3.69-2.51-6.1-.59-2.41-.88-5.14-.88-8.2,0-6.31,1.17-11.26,3.51-14.83,2.34-3.55,5.59-5.32,9.76-5.32,3.19,0,6.29,1.51,9.32,4.54V1.85c-3.42-1.24-6.77-1.85-10.05-1.85-10.12,0-18.2,3.58-24.25,10.73-6.05,7.19-9.08,16.72-9.08,28.59,0,12.69,3.22,22.49,9.66,29.42,5.76,6.18,12.85,9.27,21.27,9.27,3.58,0,7.63-.91,12.15-2.73l1.17-21.76c-3.55,3.25-7.08,4.88-10.59,4.88-2.05,0-3.87-.44-5.46-1.32Z"/>
    </g>
  </g>
</svg>