<?xml version="1.0" encoding="UTF-8"?>
<svg id="Capa_2" data-name="Capa 2" xmlns="http://www.w3.org/2000/svg" viewBox="0 0 284.67 313.6">
  <defs>
    <style>
      .cls-1 {
        fill: #1d1d1b;
      }

      .cls-2 {
        fill: #706f6f;
      }

      .cls-3 {
        fill: #878787;
      }

      .cls-4 {
        fill: #575756;
      }

      .cls-5 {
        fill: #3c3c3b;
      }
    </style>
  </defs>
  <g id="Capa_1-2" data-name="Capa 1">
    <g>
      <g>
        <path class="cls-1" d="M52.73,175.11v1.44c0,1.97,.07,4.02,.21,6.15,.14,2.13,.35,4.36,.63,6.7l-3.08,.51c-.56-4.06-2.48-7.22-5.75-9.48-3.27-2.27-7.53-3.4-12.8-3.4-7.01,0-12.43,2.15-16.24,6.44-3.82,4.3-5.72,10.39-5.72,18.27,0,8.42,2.19,15.23,6.57,20.43,4.38,5.2,10.06,7.79,17.05,7.79,4.39,0,8.2-1.01,11.43-3.04,3.22-2.03,5.74-5,7.54-8.91l2.83,1.39c-.9,1.83-1.72,3.7-2.45,5.6-.73,1.9-1.38,3.81-1.94,5.72-3.04,1.38-6.14,2.42-9.29,3.13-3.15,.7-6.32,1.06-9.51,1.06-9.35,0-16.92-2.89-22.71-8.68-5.79-5.79-8.68-13.4-8.68-22.84s3.06-16.86,9.17-22.71c6.11-5.84,14.01-8.77,23.7-8.77,2.87,0,5.91,.27,9.1,.8,3.2,.54,6.51,1.34,9.95,2.41Z"/>
        <path class="cls-1" d="M62.57,173.09c3.01,.17,5.3,.29,6.87,.36,1.56,.07,2.82,.11,3.78,.11,1.83,0,3.63-.04,5.39-.11,1.76-.07,3.51-.18,5.26-.32v2.96h-1.31c-2.23,0-3.73,.77-4.52,2.3-.79,1.54-1.18,5.06-1.18,10.58v8.4l.13,30.94c1.58,.08,3.08,.15,4.5,.19,1.42,.04,2.77,.06,4.03,.06,7.55,0,12.41-.7,14.6-2.09,2.18-1.39,3.92-4.09,5.22-8.09l3.04,.93c-.87,2.42-1.65,4.8-2.32,7.14s-1.27,4.69-1.77,7.06c-4.68-.14-8.98-.25-12.91-.32s-7.61-.11-11.05-.11c-2.42,0-5.13,.04-8.11,.11s-6.51,.18-10.56,.32v-2.75c.2,.03,.39,.05,.57,.06s.46,.02,.82,.02c3.8-.03,5.72-5.45,5.75-16.25,0-2.45,.01-4.36,.04-5.74l.08-11.48c0-1.24,.01-2.83,.04-4.77,.03-1.94,.04-3.29,.04-4.05,0-5.18-.42-8.55-1.25-10.11-.83-1.56-2.44-2.34-4.84-2.34h-.34v-3Z"/>
        <path class="cls-1" d="M112.04,173.21c4.93,.17,9.34,.3,13.22,.38,3.89,.08,7.24,.13,10.06,.13,3.13,0,6.29-.04,9.48-.13,3.2-.08,6.44-.21,9.74-.38,.03,2.11,.11,4.27,.25,6.49,.14,2.21,.31,4.43,.51,6.65l-2.83,.25c-.23-3.38-1.27-5.67-3.13-6.87-1.86-1.2-5.87-1.8-12.04-1.8-1.58,0-4.46,.04-8.66,.13-.84,.03-1.46,.04-1.86,.04-.06,3.38-.14,7.52-.25,12.42-.11,4.9-.18,8.08-.21,9.55h1.31c1.66,0,3.74,.02,6.23,.06s4.16,.06,5.01,.06c4.08,0,6.78-.38,8.09-1.14,1.31-.76,2.02-2.17,2.13-4.22l2.66,.25c-.2,1.75-.35,3.37-.44,4.86-.1,1.49-.15,2.87-.15,4.14,0,.73,.07,2.31,.21,4.73,.06,.87,.1,1.54,.13,1.99l-2.75,.08v-.34c0-2.39-.7-4.01-2.09-4.86-1.39-.84-4.65-1.27-9.78-1.27h-10.56c0,1.38-.01,3.29-.04,5.72-.03,2.44-.04,4.19-.04,5.26,0,1.86,.01,3.8,.04,5.81,.03,2.01,.08,4.37,.17,7.08,1.41,.17,3.01,.3,4.8,.38,1.79,.08,3.75,.13,5.89,.13,7.07,0,11.72-.68,13.96-2.05s4.02-3.99,5.34-7.88l3.04,1.01c-.84,2.34-1.59,4.63-2.24,6.89-.65,2.25-1.21,4.49-1.69,6.72-4.42-.17-8.53-.3-12.34-.38-3.8-.08-7.24-.13-10.31-.13-4.2,0-10.96,.15-20.28,.46l-1.52,.04v-2.75c.2,.03,.39,.05,.57,.06s.46,.02,.82,.02c3.75,0,5.65-5.27,5.7-15.8,.03-2.65,.06-4.72,.08-6.21l.17-11.53c.03-2.48,.05-4.89,.06-7.22s.02-4.87,.02-7.6c0-2.42-.45-4.1-1.35-5.03-.9-.93-2.51-1.39-4.82-1.39h-.34v-2.83Z"/>
        <path class="cls-3" d="M190.33,173.21h7.27c3.66,11.19,7.13,21.41,10.41,30.65,3.28,9.24,5.87,16.19,7.75,20.84,1.13,2.68,2.1,4.33,2.92,4.95s1.99,.93,3.51,.93h.84v2.92c-2.2-.11-4.2-.2-6.02-.25-1.82-.06-3.34-.08-4.58-.08-1.58,0-3.31,.03-5.2,.08-1.89,.06-3.89,.14-6,.25v-2.92h.8c2,0,3.37-.23,4.1-.7,.73-.47,1.1-1.32,1.1-2.56,0-.45-.06-.95-.17-1.5-.11-.55-.3-1.21-.55-1.97l-4.14-12.96c-1.07,0-2.53-.01-4.39-.04-3.38-.08-5.55-.13-6.51-.13-1.92,0-3.72,0-5.43,.02-1.7,.01-3.47,.05-5.3,.11-2,5.05-3.37,8.73-4.1,11.05-.73,2.31-1.1,3.96-1.1,4.95,0,1.38,.37,2.35,1.1,2.9,.73,.55,2.04,.82,3.93,.82h1.14v2.92c-2.06-.11-3.98-.2-5.77-.25-1.79-.06-3.39-.08-4.8-.08-1.13,0-2.53,.03-4.22,.08-1.69,.06-3.52,.14-5.49,.25v-2.87c2-.06,3.58-.46,4.75-1.2s2.19-2,3.06-3.74c1.58-3.3,4.37-9.9,8.39-19.81,4.01-9.91,8.25-20.8,12.7-32.66Zm1.9,7.94l-9.67,25.26c.54,0,1.31,.01,2.32,.04,3.18,.08,5.35,.13,6.51,.13,1.41,0,3.96-.04,7.65-.13,.82-.03,1.44-.04,1.86-.04l-8.66-25.26Z"/>
        <path class="cls-1" d="M228.44,230.76c.2,.03,.39,.05,.57,.06s.46,.02,.82,.02c3.75,0,5.65-5.27,5.7-15.8,.03-2.65,.06-4.72,.08-6.21l.17-11.53c.03-2.48,.05-4.89,.06-7.22s.02-4.87,.02-7.6c0-2.42-.45-4.1-1.35-5.03-.9-.93-2.51-1.39-4.82-1.39h-.34v-2.96c1.89,.14,3.75,.24,5.6,.3s3.64,.08,5.39,.08c1.89,0,4.23-.06,7.03-.19,2.8-.13,4.67-.19,5.6-.19,5.77,0,10.51,1.52,14.2,4.56,3.69,3.04,5.53,6.86,5.53,11.45,0,3.41-.92,6.44-2.77,9.1-1.84,2.66-4.61,4.94-8.3,6.82l7.9,11.96c.28,.45,.7,1.1,1.27,1.94,5.46,8.34,9.94,12.51,13.43,12.51h.42v2.41c-.39,.03-.99,.08-1.77,.17-1.83,.17-3.17,.25-4.01,.25-2.99,0-5.34-.4-7.08-1.2-1.73-.8-3.44-2.36-5.13-4.67-.28-.37-1.84-2.87-4.67-7.52-2.83-4.65-5.68-9.03-8.56-13.14-1.07,.11-2.21,.2-3.42,.25s-2.55,.08-4.01,.08h-2.53v12.97c0,4.22,.44,6.89,1.31,8.01,.87,1.11,2.61,1.67,5.2,1.67,.08,0,.2-.01,.34-.04s.25-.04,.34-.04c.11,0,.2,.01,.27,.04s.12,.04,.15,.04v2.79c-2-.11-3.99-.2-5.96-.25-1.97-.06-3.93-.08-5.87-.08-1.04,0-2.51,.03-4.39,.08-1.89,.06-4.03,.14-6.42,.25v-2.75Zm15.04-27.04c1.35,.14,2.63,.24,3.82,.3,1.2,.06,2.26,.08,3.19,.08,.79,0,1.69-.02,2.7-.06s2.11-.12,3.3-.23c2.7-1.63,4.69-3.53,5.96-5.68,1.27-2.15,1.9-4.72,1.9-7.71,0-3.91-1.27-7.06-3.8-9.42-2.53-2.37-5.94-3.55-10.22-3.55-1.15,0-2.28,.05-3.38,.15s-2.18,.25-3.25,.44c-.08,3.49-.14,7.08-.17,10.77-.03,3.69-.04,8.66-.04,14.91Z"/>
        <path class="cls-1" d="M44.29,295.56l14.23-32.33,.59-1.33c4.69-10.61,7.04-16.89,7.04-18.83,0-.07-.01-.17-.05-.3-.03-.13-.05-.23-.05-.3,1.94,.1,3.69,.17,5.25,.22,1.56,.05,2.95,.07,4.16,.07,1.15,0,2.48-.02,3.99-.07,1.51-.05,3.17-.12,4.98-.22v3.4h-.59c-2.86,0-4.82,.49-5.89,1.48s-1.6,2.74-1.6,5.27c0,.99,.07,3.19,.2,6.6s.3,7.12,.49,11.09l.84,13.85,.05,1.33c.72,12.29,1.28,19.24,1.68,20.85,.2,.95,.81,1.69,1.82,2.22s2.35,.79,3.99,.79h1.23v3.45c-2.59-.13-5.01-.23-7.24-.3-2.23-.07-4.08-.1-5.55-.1-1.73,0-3.68,.03-5.84,.1s-4.48,.17-6.95,.3v-3.55c.3,0,.67,.02,1.13,.05s.79,.05,.99,.05c2.5,0,4.23-.44,5.2-1.33s1.45-2.5,1.45-4.83c0-1.08-.02-2.15-.05-3.2s-.08-2.14-.15-3.25l-1.92-42.39-20.21,46.48c-.03,.07-.1,.21-.2,.44-1.58,3.25-2.74,6.72-3.5,10.4h-3.25c-.46-2.04-1.61-5.16-3.45-9.36l-.2-.44-19.86-45c-.2,3.52-.48,8.35-.84,14.49-.92,15.25-1.38,24.79-1.38,28.64v.49c0,4.17,.47,6.7,1.4,7.57,.94,.87,2.85,1.31,5.74,1.31h1.04v3.45c-2.14-.13-4.18-.23-6.14-.3s-3.85-.1-5.69-.1c-1.31,0-2.95,.03-4.9,.1s-4.05,.17-6.28,.3v-3.45H1.38c1.87,0,3.27-.23,4.19-.69s1.64-1.26,2.17-2.42c.62-1.35,1.26-6.8,1.92-16.36,.17-2.63,.31-4.71,.44-6.26l.89-11.93v-.15c.89-11.8,1.33-18.5,1.33-20.11,0-2.07-.5-3.52-1.5-4.34s-2.9-1.23-5.69-1.23h-.79v-3.4c.26,0,.69,.02,1.28,.05,3.81,.23,6.47,.35,7.98,.35,1.15,0,3.33-.1,6.56-.3,1.02-.07,1.79-.1,2.32-.1v.3c0,2.93,5.56,16.73,16.69,41.4l5.12,11.39Z"/>
        <path class="cls-3" d="M93.99,242.48c2.3,.13,4.58,.23,6.85,.3,2.27,.07,4.49,.1,6.65,.1,1.84,0,3.89-.03,6.16-.1,2.27-.07,4.66-.17,7.2-.3v3.35h-.84c-2.14,0-3.74,.25-4.81,.74-1.07,.49-1.82,1.32-2.24,2.47-.26,.75-.45,1.98-.57,3.68s-.17,4.45-.17,8.26v34.38c0,3.88,.09,6.61,.27,8.19,.18,1.58,.47,2.75,.86,3.5,.43,.82,1.19,1.41,2.29,1.77,1.1,.36,2.65,.54,4.66,.54h1.04v3.45c-2.83-.13-5.44-.23-7.84-.3s-4.4-.1-6.01-.1c-1.9,0-4.06,.03-6.46,.1s-4.91,.17-7.54,.3v-3.45h.99c2.04,0,3.6-.18,4.68-.54,1.08-.36,1.84-.95,2.27-1.77,.46-.89,.78-2.34,.96-4.37,.18-2.02,.27-5.68,.27-10.97v-27.08c0-5.16-.07-8.84-.2-11.02-.13-2.19-.35-3.71-.64-4.56-.39-1.15-1.11-1.98-2.14-2.47-1.04-.49-2.64-.74-4.81-.74h-.89v-3.35Z"/>
        <path class="cls-1" d="M127.56,242.48c1.55,.13,3.05,.23,4.51,.3,1.46,.07,2.9,.1,4.31,.1,1.05,0,2.28-.03,3.7-.1,1.41-.07,2.94-.17,4.58-.3,.43,1.08,1.02,2.2,1.77,3.35,.76,1.15,1.71,2.42,2.86,3.8l40.66,48.11c-.1-5-.2-11.61-.3-19.86-.26-17.32-.56-26.63-.89-27.95-.39-1.51-1.09-2.56-2.09-3.15s-2.64-.89-4.9-.89h-1.53v-3.4c.39,0,.99,.02,1.77,.05,4.66,.23,7.95,.35,9.86,.35s5.32-.12,10.15-.35c.69-.03,1.21-.05,1.58-.05l-.05,3.4c-.2-.03-.41-.06-.64-.07s-.54-.02-.94-.02c-4.4,0-6.64,6.13-6.7,18.38-.03,3.09-.05,5.5-.05,7.25l-.2,13.11c-.07,1.94-.11,3.94-.12,5.99-.02,2.05-.02,4.87-.02,8.45,0,3.97,.05,7.07,.15,9.29,.1,2.22,.26,4,.49,5.35h-5.47c-.56-1.31-2.55-3.94-5.96-7.89l-.49-.59-42.29-49.73v1.13c.2,30.76,.52,47.02,.99,48.8,.39,1.51,1.09,2.56,2.09,3.15,1,.59,2.61,.89,4.81,.89h1.48v3.45c-.49-.03-1.21-.07-2.17-.1-4.6-.2-7.74-.3-9.41-.3s-3.39,.03-5.35,.1-4.02,.17-6.19,.3v-3.4c.2,0,.42,0,.67,.02s.57,.02,.96,.02c4.4,0,6.64-6.09,6.7-18.29,.03-3.09,.05-5.5,.05-7.25l.25-13.11c.03-2.83,.06-5.58,.07-8.26,.02-2.68,.02-5.74,.02-9.19,0-2.83-.54-4.78-1.63-5.87-1.08-1.08-3.01-1.63-5.77-1.63h-1.33v-3.4Z"/>
        <path class="cls-1" d="M209.87,312.82v-3.4c.2,0,.41,0,.64,.02s.56,.02,.99,.02c4.37,0,6.59-6.09,6.65-18.29,.03-3.09,.07-5.5,.1-7.25l.2-13.11c.03-2.83,.06-5.58,.07-8.26,.02-2.68,.02-5.74,.02-9.19,0-2.83-.52-4.78-1.58-5.87-1.05-1.08-2.93-1.63-5.62-1.63h-.39v-3.4c2.17,.1,4.18,.19,6.04,.27,1.86,.08,3.41,.12,4.66,.12,3.62,0,7.6-.14,11.95-.42s6.91-.42,7.66-.42c12.22,0,21.85,3.11,28.88,9.32,7.03,6.21,10.55,14.66,10.55,25.33s-3.52,19.81-10.57,26.49c-7.05,6.69-16.47,10.03-28.27,10.03-1.74,0-4.91-.13-9.51-.39-4.6-.26-8.33-.39-11.19-.39-1.35,0-2.99,.03-4.93,.1s-4.06,.17-6.36,.3Zm17.45-5.96c2.4,.52,4.76,.91,7.07,1.16s4.64,.37,6.97,.37c9.27,0,16.37-2.53,21.32-7.59s7.42-12.29,7.42-21.69c0-10.02-2.66-17.87-7.98-23.56-5.32-5.69-12.72-8.53-22.18-8.53-1.94,0-3.91,.07-5.91,.22-2,.15-4.06,.37-6.16,.67-.2,11.96-.34,21.39-.42,28.29-.08,6.9-.12,12.65-.12,17.25v13.41Z"/>
      </g>
      <g>
        <path class="cls-5" d="M213.61,161.48c-24.23,0-48.78-6.17-71.27-19.14,22.39-12.87,46.83-19.04,71.06-19.04h.11c24.98,0,49.54,6.6,71.17,19.14-21.63,12.44-46.18,19.04-71.06,19.04Z"/>
        <path class="cls-4" d="M213.63,123.28c-20.98,12.11-45.33,19.05-71.3,19.06,12.95-22.34,31.04-39.9,52.02-52.01l.09-.05c21.64-12.49,46.2-19.05,71.2-19-12.51,21.59-30.48,39.58-52.02,52.01Z"/>
        <path class="cls-2" d="M194.55,90.18c-12.11,20.98-29.73,39.16-52.22,52.15,.05-25.82,6.93-50.08,19.04-71.06l.05-.09c12.49-21.64,30.48-39.6,52.16-52.06-.04,24.95-6.61,49.51-19.04,71.06Z"/>
        <path class="cls-3" d="M161.48,71.06c0,24.23-6.17,48.78-19.14,71.27-12.87-22.39-19.04-46.83-19.04-71.06v-.11c0-24.98,6.6-49.54,19.14-71.17,12.44,21.63,19.04,46.18,19.04,71.06Z"/>
        <path class="cls-5" d="M123.28,71.04c12.11,20.98,19.05,45.33,19.06,71.3-22.34-12.95-39.9-31.04-52.01-52.02l-.05-.09c-12.49-21.64-19.05-46.2-19-71.2,21.59,12.51,39.58,30.48,52.01,52.02Z"/>
        <path class="cls-4" d="M90.18,90.12c20.98,12.11,39.16,29.73,52.15,52.22-25.82-.05-50.08-6.93-71.06-19.04l-.09-.05c-21.64-12.49-39.6-30.48-52.06-52.16,24.95,.04,49.51,6.61,71.06,19.04Z"/>
        <path class="cls-2" d="M71.06,123.19c24.23,0,48.78,6.17,71.27,19.14-22.39,12.87-46.83,19.04-71.06,19.04h-.11c-24.98,0-49.54-6.6-71.17-19.14,21.63-12.44,46.18-19.04,71.06-19.04Z"/>
      </g>
    </g>
  </g>
</svg>