<?xml version="1.0" encoding="UTF-8"?>
<svg id="Capa_2" data-name="Capa 2" xmlns="http://www.w3.org/2000/svg" viewBox="0 0 381.62 111.41">
  <defs>
    <style>
      .cls-1 {
        fill: #1d1d1b;
      }
    </style>
  </defs>
  <g id="Capa_1-2" data-name="Capa 1">
    <g>
      <path class="cls-1" d="M369.58,47.97c-1.78,0-3.49,.39-5.03,1.14-.15-.2-.31-.39-.47-.58,.09-1.57-.19-3.18-.87-4.69-3.92-8.71-12.14-13.36-22.58-12.77h-.11c-1.84,.13-3.7,.5-5.58,1.11-1.35-3.96-4.11-7.02-7.97-8.61-1.57-.67-3.3-1.06-5.46-1.14-.22-.52-.46-1.02-.73-1.5-1.19-2.11-2.84-3.92-4.92-5.4-1.56-1.1-3.18-1.97-4.84-2.59-1.33-.49-2.76-.87-4.21-1.16-1.31-.25-2.16-.38-2.9-.46-.63-.05-1.22-.08-1.78-.08-3.3,0-6.38,1.6-8.27,4.3-.27,.4-.52,.81-.74,1.24-1.47-.73-3.8-1.59-8.49-3.07-1.76-.58-3.52-.82-5.27-.69-3.71,.27-7.01,2.36-9.03,5.71-.34,.56-.63,1.17-.85,1.78-.75,2.04-1.35,3.79-1.79,5.2-.74,2.33-1.07,4.58-1,6.68,0,.45,.03,.86,.05,1.25-.07,.07-.15,.14-.23,.21-.11-.06-.2-.12-.29-.17-3.59-2.18-6.78-3.59-9.76-4.32l-.14-.03c-1.41-.33-2.91-.52-4.48-.57-1.66-.05-3.45,.11-5.49,.48-2.09,.38-4.17,1.04-6.16,1.93-2.09,.94-4.16,2.28-6.16,4-.04-.03-.07-.05-.12-.08-1.15-.82-2.45-1.55-3.98-2.23-1.69-.75-3.5-1.26-5.35-1.51-4.69-.79-9.34-.39-13.8,1.18-.48,.17-.96,.35-1.44,.54-.46-2.45-1.28-4.86-2.48-7.22-.04-.05-.06-.12-.1-.17-2.78-5.18-8.85-11.62-22.04-13.06-1.91-.35-4.09-.41-6.65-.2-1.78,.15-3.75,.29-5.91,.44-2.92,.2-6.02,.76-9.18,1.67-2.67,.76-5.37,1.63-8.04,2.58-3.25,1.17-6.41,2.79-9.39,4.82-2.9,1.98-5.53,4.25-7.8,6.74-2.54,2.77-4.64,6.13-6.26,9.97-1.61,3.83-2.56,8.02-2.82,12.43-.05,.76-.05,1.5-.04,2.22-.15-.22-.3-.44-.46-.65-2.33-2.97-5.8-4.66-9.5-4.66-1.78,0-3.49,.39-5.03,1.14-.15-.2-.31-.39-.46-.58,.08-1.57-.2-3.18-.88-4.69-3.92-8.71-12.15-13.37-22.58-12.77h-.12c-3.06,.22-6.2,1.1-9.37,2.65-2.59,1.29-5.09,2.93-7.46,4.91,.32-.7,.61-1.39,.86-2.07,.29-.76,.59-1.6,.92-2.53,.11-.31,.19-.56,.26-.73,.05-.13,.1-.26,.15-.39,.07-.2,.15-.39,.21-.58,.83-.1,1.59-.22,2.32-.37,1.23-.25,2.45-.57,3.63-.95,1.47-.47,2.84-1.05,4.06-1.72,.06-.04,.12-.07,.18-.11,3.7-2.15,6.44-5.22,7.88-8.88,1.23-3.09,1.62-6.75,1.21-11.15-.41-4.3-3.49-7.86-7.68-8.87-3.82-.93-7.81,.46-10.23,3.49-.28,.08-.74,.2-1.41,.31-3.09,.48-6.82,.58-11.08,.31-4.88-.32-9.97-.7-15.14-1.12-5.67-.46-11.33-.49-16.83-.09-6.65,.47-11.92,1.92-16.13,4.43-4.21,2.46-7.74,5.65-10.47,9.49C2.58,21.17,.82,25.5,.26,29.98c-.53,4.15-.25,8.21,.83,12.07,1.3,4.69,3.95,8.63,7.88,11.72,1.86,1.46,3.91,2.61,6.13,3.44-1.82,6.59-2.75,12.12-2.84,16.85-.1,2.51,.2,4.97,.89,7.31,.65,2.17,1.42,3.98,2.36,5.53,.78,1.29,1.67,2.53,2.65,3.67,1.23,1.43,2.15,2.31,3.13,3,1.84,1.52,4.12,2.31,6.44,2.31,1.32,0,2.65-.25,3.91-.79,2.2-.92,3.96-2.58,5.02-4.62,1.33,1.01,2.86,1.89,4.57,2.65,2.67,1.18,5.57,1.9,8.62,2.14,.55,.05,1.09,.06,1.63,.06,3.22,0,6.34-.76,9.28-2.27,.12-.06,.24-.13,.35-.19,1-.56,2.02-1.27,3.09-2.11,3.3,2.08,7.76,3.59,13.79,3.85,2.01,.09,4.08-.28,6.15-1.01,1.11-.4,2.18-.86,3.15-1.36,1.65,1.12,3.5,1.91,5.5,2.34,2.58,.55,5.21,.64,7.81,.25,2.89-.44,5.43-1.39,7.54-2.84,1.65-1.09,2.93-2.02,3.94-2.87,1.11-.93,2.43-2.26,4.28-4.3,1.83-2.02,3.79-4.63,5.99-7.99,1.99-3.03,4.3-6.84,6.86-11.31,.13-.21,.24-.43,.35-.66,.56-1.17,.91-2.4,1.05-3.65,.14,.25,.27,.5,.42,.75,2.67,4.51,6.3,6.32,8.88,7.05,.39,.11,.79,.21,1.18,.3-.26,.59-.36,.81-.42,.99-.16,.41-.3,.82-.4,1.25-.33,.87-.56,1.6-.73,2.23-.22,.77-.42,1.71-.62,2.81-.52,2.73-.32,5.33,.57,7.64,.49,1.31,1.18,2.64,2.04,3.93,1.54,2.32,3.76,4.14,6.6,5.41,1.8,.81,3.82,1.42,6.18,1.87,3.18,.62,6.45-.34,8.81-2.56,.95-.89,1.7-1.94,2.24-3.09,.54,.68,1.08,1.37,1.65,2.07,2.91,3.62,5.94,6.89,8.99,9.69,3.47,3.2,6.75,5.5,10.05,7.04,3.83,1.88,7.69,2.84,11.48,2.84,.1,0,.19,0,.29,0,4.06-.05,7.42-.86,10.3-2.47,2.32-1.3,4.44-3.04,6.33-5.17,1.81-2.05,2.84-3.45,3.56-4.86,.49-.95,.86-1.78,1.15-2.56,.33-.89,.52-1.81,.58-2.74,2.66-1.07,5.24-2.55,7.73-4.42,.67,1.21,1.54,2.37,2.59,3.44,3.34,3.41,7.63,5.53,12.73,6.29,.84,.14,1.69,.2,2.57,.2,2.45,0,5.03-.54,7.83-1.62,2.89-1.12,5.66-2.65,8.26-4.54,.4-.29,.79-.6,1.17-.91,.69,.39,1.42,.75,2.18,1.09,2.68,1.17,5.57,1.89,8.62,2.13,3.81,.3,7.48-.45,10.91-2.2l.35-.19c.84-.47,1.69-1.04,2.56-1.69,.73,.51,1.5,.98,2.32,1.42,2.44,1.29,5.21,2.1,8.22,2.42,3.89,.41,7.77-.5,11.25-2.63,1.31-.76,2.66-1.75,4.1-3,3.43,2.78,8.45,4.91,15.79,5.23,2.01,.09,4.09-.28,6.14-1.01,1.12-.39,2.18-.86,3.16-1.36,1.65,1.12,3.5,1.91,5.49,2.34,2.59,.55,5.21,.64,7.82,.25,2.89-.44,5.43-1.39,7.54-2.84,1.64-1.08,2.92-2.02,3.95-2.88,1.11-.93,2.43-2.26,4.27-4.29,1.82-2.02,3.78-4.63,5.99-7.99,1.98-3.03,4.3-6.84,6.86-11.31,.12-.21,.23-.43,.34-.65,1.92-3.99,1.38-8.68-1.4-12.23-2.33-2.97-5.79-4.67-9.5-4.67Zm-330.43-1.39c-.11,.38-.24,.8-.38,1.26-.15,.4-.55,1.44-1.6,3.6-.05,.11-.11,.22-.15,.33,0,.02-.02,.04-.03,.05-.53,1.3-1.06,2.64-1.59,3.99-2.04,5.19-3.79,10.5-5.24,15.92,0,.04-.02,.06-.03,.1-1.47,5.46-2.27,10.11-2.39,13.95-.14-.12-.33-.27-.59-.45-.25-.18-.7-.64-1.32-1.36-.62-.72-1.17-1.48-1.66-2.29-.49-.81-.93-1.88-1.32-3.2-.39-1.32-.56-2.7-.49-4.14,.06-4.14,1.01-9.38,2.84-15.7,1.82-6.33,3.82-12.08,6.01-17.23,2.18-5.16,4.11-9.84,5.81-14.05,1.69-4.2,2.48-6.57,2.35-7.11-2.6-.06-5.08-.06-7.43,0-2.34,.06-4.52,.44-6.54,1.13-2.02,.68-3.78,1.61-5.28,2.79-1.49,1.17-2.7,2.82-3.61,4.95-.91,2.13-1.43,4.7-1.57,7.69-.06,1.8,.18,3.4,.74,4.77,.56,1.38,1.25,2.38,2.1,3.01,.85,.64,1.69,1.15,2.54,1.54,.85,.38,1.56,.61,2.15,.67l.87,.08c.26-.05,.45,.05,.55,.32,.09,.27,.09,.57,0,.9-.1,.33-.25,.53-.45,.58-3.26-.17-5.99-1.14-8.21-2.88-2.21-1.74-3.68-3.91-4.4-6.48-.71-2.58-.89-5.28-.54-8.1,.36-2.82,1.5-5.58,3.42-8.27,1.92-2.7,4.38-4.92,7.38-6.66,2.79-1.68,6.71-2.7,11.72-3.06,5.02-.36,10.11-.33,15.29,.09,1.54,.13,3.08,.25,4.6,.36,3.6,.27,7.15,.52,10.65,.76h.05c5.02,.34,9.44,.2,13.29-.4,3.84-.6,6.42-1.92,7.72-3.96,.25,2.76,.08,4.92-.54,6.48-.62,1.56-1.81,2.85-3.57,3.87-.66,.36-1.4,.67-2.25,.95-.85,.26-1.71,.49-2.59,.67-.17,.04-.36,.07-.56,.1-.76,.13-1.63,.23-2.62,.3-1.24,.09-2.35,.15-3.32,.18-.98,.03-2.18,.02-3.62-.05-1.43-.05-2.63-.12-3.61-.18-.97-.05-2.25-.16-3.8-.31-1.57-.15-2.78-.27-3.62-.36-.85-.09-2.07-.23-3.66-.4-1.6-.18-2.69-.3-3.28-.36,1.17,.9,1.67,2.19,1.47,3.87,0,.18-.72,1.78-2.15,4.82-.35,.76-.74,1.57-1.13,2.42-.63,1.36-1.29,2.83-2.02,4.43-.64,1.43-1.31,2.96-2.03,4.58-.77,1.77-1.56,3.58-2.34,5.44,0,0,0,.02,0,.04Zm26.39-17.31c-.06,.12-.25,.6-.54,1.44-.25,.7-.48,1.36-.7,1.96-.05,.12-.09,.23-.13,.34-.26,.68-.58,1.41-.96,2.18,0,0,0,.02-.02,.03-.39,.78-.81,1.38-1.27,1.8s-.88,.57-1.27,.45c-.19,0-.43-.03-.68-.08-1.5-.36-2.56-.64-3.18-.81-.55-.16-1.16-.41-1.83-.76-.09-.04-.18-.09-.27-.14-.78-.42-1.22-.88-1.32-1.4-.09-.5-.16-1.24-.19-2.2,0-.2,0-.4,0-.61,.04-.8,.22-1.69,.53-2.68,.39-1.23,.95-2.83,1.66-4.82,.33-.54,.7-.82,1.13-.86,.42-.03,.89,.05,1.42,.23,4.23,1.32,6.72,2.22,7.47,2.7,.75,.48,.79,1.56,.15,3.24Zm54.92,31.23c-2.48,4.31-4.66,7.92-6.54,10.8-1.89,2.88-3.57,5.13-5.03,6.75-1.47,1.62-2.56,2.73-3.28,3.33-.72,.59-1.76,1.35-3.12,2.25-.85,.6-1.98,1-3.38,1.21-1.4,.21-2.79,.16-4.2-.14s-2.56-1.07-3.47-2.34c-.92-1.26-1.27-2.94-1.07-5.04v-.26c-.07,.12-.47,.51-1.23,1.17-.75,.66-1.33,1.2-1.76,1.62-.42,.43-1.07,.96-1.96,1.62-.87,.66-1.66,1.19-2.34,1.57-.68,.39-1.46,.74-2.29,1.04-.86,.3-1.63,.46-2.35,.46-7.88-.36-12.32-3.46-13.36-9.26-3.69,4.6-6.66,7.53-8.92,8.8-1.76,.9-3.6,1.27-5.52,1.13-1.92-.15-3.7-.59-5.33-1.31-1.63-.72-2.87-1.56-3.71-2.51-.91-2.05-1.4-4.21-1.47-6.48-.02-.49,0-.98,.02-1.47,.07-1.78,.39-3.57,.96-5.33,.72-2.25,1.5-4.33,2.35-6.25,.85-1.91,1.77-3.9,2.78-5.96,0,0,0-.02,0-.03,.82-2.03,1.64-4.01,2.45-5.94,.53-1.75,.9-3.3,1.12-4.67,.04-.25,.07-.48,.1-.7,.17-1.27,.2-2.13,.09-2.59l-.19-.72c.19,0,.46,0,.83,.05,.33,.03,.89,.12,1.71,.26,.08,.02,.16,.03,.25,.05,.94,.18,1.8,.41,2.59,.67,.78,.27,1.61,.73,2.49,1.36,.87,.63,1.55,1.33,2,2.11,.29,.5,.47,1.11,.56,1.83,.04,.39,.05,.82,.03,1.27-.06,1.29-.46,2.71-1.17,4.28-7.62,16.26-10.71,25.68-9.28,28.26,.32,.59,.85,.86,1.56,.81,.72-.06,1.55-.36,2.49-.9,.95-.55,1.89-1.25,2.83-2.12,.95-.86,1.94-1.86,2.99-2.97,1.04-1.11,2.07-2.28,3.08-3.51,.77-.95,1.52-1.86,2.26-2.77,.57-4.26,2.53-8.92,5.9-14.02,4.11-6.24,8.7-10.61,13.78-13.14,1.96-.96,3.81-1.5,5.57-1.62,6.32-.36,10.59,1.92,12.8,6.84-.06-.05-.18-.15-.34-.26-.16-.13-.53-.32-1.08-.59-.55-.26-1.12-.49-1.7-.67-.59-.18-1.31-.33-2.16-.45-.85-.12-1.72-.12-2.63,0-1.77,.18-3.8,1.21-6.11,3.1-2.31,1.88-4.48,4.19-6.5,6.88-2.02,2.7-3.85,5.6-5.47,8.68-1.63,3.09-2.59,5.93-2.89,8.51-.29,2.58,.08,4.71,1.12,6.39,.39,.54,.99,.9,1.81,1.07,.81,.18,1.84,.06,3.08-.35s2.56-1.14,3.96-2.17c1.4-1.02,2.96-2.64,4.69-4.85,1.73-2.22,3.44-4.86,5.13-7.92,.58-1.32,1.32-2.87,2.19-4.64,.88-1.77,1.38-2.8,1.52-3.1,.52-1.14,.86-2.31,1.02-3.5,.16-1.2,.15-1.87-.05-1.98,.13,0,.33,.02,.58,.05,.26,.03,.76,.14,1.47,.32,.72,.17,1.37,.39,1.96,.63,.59,.24,1.2,.6,1.86,1.07,.66,.48,1.14,1.06,1.47,1.71,.33,.66,.49,1.48,.49,2.48s-.26,2.08-.78,3.29c-.06,.12-1.14,2.08-3.22,5.9-2.08,3.81-3.67,7.09-4.74,9.85-1.07,2.77-1.09,4.18-.05,4.23,1.43,.12,2.89-.35,4.4-1.44,1.49-1.08,3.51-3.34,6.05-6.8,2.54-3.45,5.51-8.2,8.89-14.26,.46-.72,.99-1.07,1.61-1.07s1.14,.26,1.57,.81c.43,.54,.5,1.07,.25,1.62Zm88.58,33.79c-.17,.35-.5,.81-.98,1.41-.32,.4-.71,.86-1.17,1.38-1.15,1.28-2.39,2.3-3.71,3.06-1.34,.75-3.16,1.14-5.47,1.17-2.31,.03-4.74-.59-7.28-1.85-2.35-1.08-4.87-2.87-7.57-5.35-2.7-2.49-5.36-5.36-7.96-8.6-2.6-3.24-4.89-6.22-6.84-8.96-1.96-2.72-3.85-5.5-5.67-8.32-4.37,9.49-6.42,15.24-6.15,17.28-1.57-.3-2.89-.68-3.96-1.17s-1.84-1.07-2.29-1.76c-.46-.69-.8-1.34-1.03-1.94-.23-.59-.26-1.33-.1-2.2,.16-.86,.31-1.54,.45-2.02,.13-.48,.35-1.14,.68-1.98,.06-.24,.09-.39,.09-.45,.26-.66,1.6-3.54,4.01-8.64,2.41-5.11,4.94-10.41,7.57-15.94,2.64-5.52,4.06-8.48,4.25-8.9,.53-1.15,.82-2.19,.88-3.15,.06-.96,0-1.62-.19-1.98l-.39-.63c.13,0,.27,.03,.44,.09,.16,.05,.47,.16,.93,.31,.46,.15,.89,.32,1.32,.5,.42,.18,.93,.44,1.51,.76,.59,.33,1.11,.67,1.57,1.03,.46,.36,.88,.8,1.27,1.31s.68,1.05,.87,1.62c.2,.56,.26,1.23,.2,1.98-.07,.76-.26,1.55-.59,2.39-.33,.72-.89,1.92-1.71,3.6-.81,1.67-1.88,3.85-3.22,6.53-1.34,2.67-2.46,4.99-3.37,6.97,6.25-1.8,12.22-5.73,17.88-11.79,5.47-5.76,8.4-10.99,8.79-15.67,.2-3.36-1.2-5.7-4.2-7.02-1.83-.78-3.94-1.26-6.35-1.44-2.41-.18-4.95,0-7.62,.54-2.68,.55-5.3,1.35-7.86,2.43-2.58,1.08-5.03,2.57-7.38,4.46-2.35,1.88-4.3,4.03-5.86,6.44-1.3,2.09-2.35,4.21-3.13,6.34-.77,2.13-1.14,4.35-1.07,6.65,.06,2.31,.72,4.25,1.96,5.81,0,.18-.44,.41-1.32,.67-.87,.27-1.9,.42-3.08,.45-1.17,.04-2.35-.12-3.52-.45-1.17-.33-2.15-1.16-2.92-2.48-.78-1.32-1.11-3.03-.98-5.12,.2-3.3,.88-6.35,2.06-9.14,1.17-2.79,2.63-5.14,4.4-7.06,1.76-1.92,3.78-3.66,6.05-5.23,2.28-1.56,4.64-2.77,7.09-3.64,2.44-.86,4.92-1.67,7.42-2.38,2.51-.72,4.87-1.16,7.09-1.3,2.21-.15,4.23-.3,6.05-.46,1.82-.15,3.26-.1,4.31,.14,7.36,.72,12.24,3.33,14.66,7.83,1.51,2.96,2.08,5.93,1.71,8.9-.12,1.01-.35,2.02-.68,3.02-1.34,4-3.7,7.7-7.09,11.11-1.16,1.17-2.36,2.28-3.6,3.31-2.4,2.04-4.96,3.84-7.69,5.42-4.13,2.4-7.99,4.02-11.58,4.86,1.76,2.47,3.6,4.83,5.53,7.11,1.92,2.28,4.33,4.79,7.23,7.52,2.9,2.73,5.77,5,8.6,6.8,1.57,.99,3.23,1.86,5,2.58,1.41,.6,2.89,1.1,4.43,1.51,3.45,.94,6.77,1.04,9.97,.32-.14,.36-.35,.83-.64,1.39Zm-23.28-22.71c-.16-.16-.32-.32-.47-.48,.09-.05,.18-.1,.27-.15,.06-.04,.13-.07,.19-.12v.19c0,.19,0,.38,0,.56Zm185.64-11.08c-2.48,4.31-4.66,7.92-6.55,10.8-1.88,2.88-3.56,5.13-5.02,6.75-1.47,1.62-2.56,2.73-3.28,3.33-.72,.59-1.76,1.35-3.13,2.25-.85,.6-1.97,1-3.37,1.21-1.4,.21-2.8,.16-4.2-.14-1.4-.3-2.56-1.07-3.48-2.34-.91-1.26-1.27-2.94-1.07-5.04v-.26c-.06,.12-.47,.51-1.22,1.17-.75,.66-1.34,1.2-1.76,1.62-.43,.43-1.07,.96-1.96,1.62-.87,.66-1.66,1.19-2.34,1.57-.69,.39-1.46,.74-2.3,1.04s-1.63,.46-2.34,.46c-8.15-.36-12.64-3.63-13.49-9.81-.15-1.17-.15-2.39-.05-3.64-5.14,6.82-9.13,11.04-11.96,12.64-1.63,1.02-3.3,1.44-5.03,1.26-1.73-.18-3.24-.62-4.54-1.3-1.3-.69-2.35-1.55-3.13-2.57-.86-1.78-1.27-4.28-1.24-7.46-4.29,5.53-7.68,9.01-10.2,10.42-1.76,.9-3.6,1.27-5.52,1.13-1.92-.15-3.7-.59-5.33-1.31-1.63-.72-2.87-1.56-3.71-2.51-.91-2.05-1.4-4.21-1.47-6.48-.06-2.28,.26-4.55,.97-6.8,.49-1.53,1.02-2.96,1.57-4.33-2.25,1.57-5.08,3.54-8.5,5.91,1.43,1.2,2.41,2.59,2.93,4.14,.59,1.92,.35,3.89-.73,5.9-1.07,2-2.56,3.7-4.45,5.08-1.88,1.38-3.88,2.48-5.96,3.29-2.08,.81-3.81,1.09-5.18,.86-2.93-.42-5.29-1.55-7.08-3.38-1.79-1.83-1.97-3.64-.54-5.44,1.11-1.32,5.93-4.82,14.46-10.53-.26-.18-.52-.33-.78-.45-1.96-1.08-3.78-2.2-5.47-3.38-1.57-1.08-3.07-2.33-4.5-3.7-1.22,1.17-2.58,2.29-4.11,3.38-1.82,1.27-3.61,2.28-5.37,3.07-2.02,4.68-4.69,8.46-8.02,11.33-2.49,2.17-5.04,3.72-7.66,4.68-.86,.31-1.73,.56-2.6,.73-3.45,.72-6.53,.4-9.23-.95-1.13-.56-2.14-1.24-3.03-2.05-1.26-1.11-2.28-2.46-3.08-4.03-.97-2.04-1.48-4.48-1.51-7.33-.04-2.78,.34-5.57,1.11-8.38,.02-.07,.04-.15,.05-.22,.82-2.88,2.08-5.7,3.77-8.46,1.69-2.76,3.61-5.16,5.76-7.2,.66-.64,1.37-1.22,2.11-1.74,1.64-1.2,3.46-2.15,5.46-2.85,2.89-1.02,5.88-1.27,8.94-.72,.98,.12,1.91,.37,2.79,.76,.88,.39,1.61,.79,2.2,1.21,.58,.42,1.08,.83,1.51,1.21,.43,.4,.74,.74,.93,1.04l.29,.36c-1.1,0-2.21,.09-3.32,.27,2.02-.13,3.6,.34,4.74,1.39,1.14,1.05,1.79,2.5,1.96,4.36,.15,1.87,.09,3.8-.2,5.81-.29,2.01-.76,4.16-1.42,6.44,2.14-1.29,4.01-2.82,5.63-4.57-.62-.77-1.15-1.55-1.57-2.31-.81-1.47-1.24-3.09-1.27-4.86-.03-1.78,.47-3.5,1.52-5.18,1.04-1.67,2.23-3.1,3.57-4.27,1.33-1.17,2.64-2.05,3.91-2.61,1.27-.57,2.56-.97,3.86-1.22,1.3-.24,2.41-.35,3.32-.31,.91,.03,1.76,.14,2.54,.31,1.96,.48,4.27,1.53,6.94,3.15,2.68,1.62,4.04,3.07,4.11,4.32,.14,1.98-1.03,4.66-3.47,8.06-2.44,3.39-4.87,5.56-7.28,6.53-1.56,.48-2.77,.63-3.61,.45s-1.4-.51-1.66-.99l-.49-.81c.13-.05,.29-.17,.49-.35,.19-.18,.6-.55,1.22-1.08,.62-.54,1.2-1.09,1.76-1.67,.56-.56,1.2-1.26,1.96-2.07,.75-.81,1.4-1.59,1.96-2.34,.55-.76,1.07-1.57,1.56-2.48,.49-.9,.85-1.74,1.07-2.52s.31-1.57,.25-2.38c-.06-.81-.35-1.51-.87-2.11-.33,.12-.8,.28-1.42,.49-.62,.21-1.73,.74-3.32,1.57-1.6,.84-2.99,1.74-4.21,2.7-1.2,.96-2.28,2.28-3.22,3.96-.36,.65-.63,1.32-.85,1.99,.1,.07,.22,.12,.31,.21,.46,.45,.56,.95,.29,1.48-.31,.64-.66,1.26-1.05,1.87,.03,.93,.18,1.79,.51,2.59,.36,.87,.68,1.57,.97,2.08,.3,.51,.92,1.11,1.87,1.8,.94,.69,1.56,1.14,1.86,1.35,.29,.21,1.1,.66,2.44,1.35,1.33,.69,2.07,1.07,2.19,1.13,2.55-1.62,5.1-3.29,7.67-5,2.58-1.71,4.48-2.95,5.72-3.73,.43-.27,.77-.49,1.08-.7,.34-.7,.66-1.41,1.02-2.14,1.01-2.07,1.71-3.67,2.1-4.82,.71-2.21,1.2-4.15,1.47-5.8,.25-1.66,.32-2.75,.19-3.29l-.19-.72c.19,0,.46,0,.83,.05,.35,.03,1.01,.14,1.95,.31,.95,.18,1.81,.41,2.59,.67,.78,.27,1.61,.73,2.49,1.36,.87,.63,1.55,1.33,2,2.11,.46,.78,.65,1.81,.58,3.1s-.46,2.71-1.17,4.28c-7.62,16.26-10.71,25.68-9.28,28.26,.32,.59,.85,.86,1.56,.81,.72-.06,1.55-.36,2.49-.9,.95-.55,1.89-1.25,2.83-2.12,.95-.86,1.94-1.86,2.99-2.97,1.04-1.11,2.07-2.28,3.08-3.51s1.98-2.43,2.93-3.6c.4-.5,.78-.99,1.17-1.48,.99-7.15,3.44-16.57,7.38-28.26-.25,0-.93,.03-2,.09-1.07,.06-2.15,.09-3.22,.09s-2.23-.05-3.47-.14c-1.24-.09-2.36-.28-3.37-.58-1.01-.3-1.78-.69-2.3-1.17-.1-.12-.18-.24-.26-.36-1.3-.32-2.25-.56-2.81-.72-.62-.18-1.32-.48-2.1-.9-.77-.42-1.22-.88-1.32-1.4-.09-.5-.15-1.24-.19-2.2-.04-.96,.15-2.05,.54-3.29,.39-1.23,.95-2.83,1.66-4.82,.33-.54,.7-.82,1.13-.86,.42-.03,.89,.05,1.42,.23,4.23,1.32,6.73,2.22,7.47,2.7,.75,.48,.79,1.56,.15,3.24-.06,.12-.25,.6-.54,1.44-.29,.84-.57,1.6-.83,2.29-.19,.49-.43,1.02-.67,1.57,0,0,.02,0,.04,0,1.66,.36,3.14,.57,4.44,.63,1.3,.06,2.9,.08,4.79,.05,1.89-.03,2.87-.05,2.93-.05,.78-2.22,1.24-3.54,1.37-3.96,.46-1.44,.83-2.76,1.12-3.96,.29-1.2,.46-2.14,.49-2.83,.03-.69,.05-1.29,.05-1.8s-.04-.86-.1-1.04l-.09-.26c.25,0,.55,0,.87,.05,.33,.03,.96,.13,1.91,.31,.94,.18,1.82,.42,2.63,.72,.82,.3,1.65,.76,2.49,1.36,.85,.6,1.5,1.3,1.96,2.11s.66,1.86,.64,3.15c-.04,1.29-.45,2.71-1.22,4.28-.07,.12-.14,.26-.2,.45l.2-.09c6.32-1.2,10.19-1.47,11.62-.81,1.82,.72,2.73,2.43,2.73,5.13-2.54-.72-7.81-.57-15.83,.45h-.58c-3.78,9.72-7.04,19.44-9.77,29.17-2.74,9.71-2.87,14.49-.39,14.31,.91-.12,1.98-.6,3.22-1.44,1.24-.85,2.49-1.92,3.76-3.24,1.27-1.32,2.58-2.75,3.91-4.28,1.34-1.53,2.61-3.09,3.81-4.68,1.21-1.59,2.25-3.01,3.13-4.28,.44-.63,.91-1.32,1.44-2.09,.91-1.94,2.02-3.93,3.4-6.01,4.11-6.24,8.69-10.61,13.78-13.14,1.95-.96,3.81-1.5,5.57-1.62,6.32-.36,10.59,1.92,12.8,6.84-.06-.05-.18-.15-.35-.26-.16-.13-.52-.32-1.07-.59-.56-.26-1.12-.49-1.71-.67-.58-.18-1.3-.33-2.15-.45s-1.72-.12-2.64,0c-1.76,.18-3.8,1.21-6.11,3.1-2.31,1.88-4.48,4.19-6.49,6.88-2.02,2.7-3.85,5.6-5.48,8.68-1.63,3.09-2.59,5.93-2.88,8.51-.29,2.58,.08,4.71,1.12,6.39,.39,.54,.99,.9,1.81,1.07,.81,.18,1.84,.06,3.08-.35,1.24-.42,2.56-1.14,3.96-2.17,1.39-1.02,2.96-2.64,4.69-4.85,1.72-2.22,3.43-4.86,5.13-7.92,.58-1.32,1.31-2.87,2.19-4.64,.88-1.77,1.38-2.8,1.51-3.1,.53-1.14,.86-2.31,1.03-3.5,.16-1.2,.15-1.87-.05-1.98,.13,0,.33,.02,.58,.05,.26,.03,.75,.14,1.47,.32,.72,.17,1.37,.39,1.96,.63s1.2,.6,1.86,1.07c.65,.48,1.14,1.06,1.47,1.71,.33,.66,.49,1.48,.49,2.48s-.26,2.08-.78,3.29c-.06,.12-1.15,2.08-3.23,5.9-2.08,3.81-3.66,7.09-4.73,9.85-1.07,2.77-1.09,4.18-.05,4.23,1.44,.12,2.9-.35,4.41-1.44,1.49-1.08,3.51-3.34,6.05-6.8,2.54-3.45,5.51-8.2,8.89-14.26,.46-.72,.99-1.07,1.61-1.07s1.14,.26,1.57,.81c.42,.54,.5,1.07,.25,1.62Z"/>
      <path class="cls-1" d="M246.6,77.41c-.85,.6-1.72,1.24-2.64,1.89-.91,.66-1.67,1.21-2.29,1.67-.62,.45-1.14,.92-1.57,1.39-.42,.48-.69,.9-.83,1.27,1.69,.72,3.65,.56,5.86-.46,2.21-1.02,4.11-2.52,5.67-4.5,1.57-1.98,2.31-3.87,2.25-5.67-.97,.66-2.08,1.41-3.32,2.25-1.24,.85-2.28,1.57-3.13,2.16Z"/>
      <path class="cls-1" d="M228.33,48.53c-.78-.18-1.69,.4-2.74,1.75-1.04,1.36-1.92,2.98-2.64,4.86-.71,1.89-1.22,3.77-1.51,5.63-.29,1.87-.08,3.28,.64,4.23,.65,.84,1.42,1.34,2.29,1.48,.88,.15,1.97,.05,3.28-.31,.85-2.35,1.55-4.76,2.1-7.25,.55-2.49,.75-4.79,.58-6.89s-.83-3.27-2-3.5Z"/>
      <path class="cls-1" d="M219.48,69.28c-2.5-1.36-4.09-3.66-4.73-6.94-.66-3.27,.94-7.72,4.79-13.36-4.76,2.76-8.29,6.85-10.6,12.29-2.31,5.43-3.16,10.24-2.54,14.45,.62,4.2,2.23,6.26,4.83,6.21,3.26-.12,6.04-1.17,8.36-3.15,2.31-1.98,4.45-4.92,6.4-8.82-1.82,.9-3.99,.67-6.5-.67Z"/>
    </g>
  </g>
</svg>