<?xml version="1.0" encoding="UTF-8"?>
<svg id="Capa_2" data-name="Capa 2" xmlns="http://www.w3.org/2000/svg" viewBox="0 0 307.08 313.6">
  <defs>
    <style>
      .cls-1 {
        fill: #1d1d1b;
      }

      .cls-2 {
        fill: #3c3c3b;
      }
    </style>
  </defs>
  <g id="Capa_1-2" data-name="Capa 1">
    <g>
      <path class="cls-2" d="M120.11,24.89c-.92,.47-3.08,1.58-4.79,2.66-.21-.29-.45-.58-.71-.84,.21-.55,.39-1.08,.5-1.34,.11-.42,.39-1.47,.63-2.42,.13-.55,.26-1.11,.34-1.39,.08,.08,.13,.16,.18,.26,.39,.55,1.03,1.5,1.82,2.1,.68,.53,1.55,.82,2.03,.97Z"/>
      <path class="cls-2" d="M115.32,27.55c-.53,.32-1,.63-1.37,.92,.18-.47,.42-1.13,.66-1.76,.26,.26,.5,.55,.71,.84Z"/>
      <path class="cls-2" d="M115.85,35.68c-1.68,4.63-2.87,4.87-3.37,6.68-.53,1.84-1.71,2.92-2.47,4.03-.79,1.08-2.47,3.53-2.47,4.74s-.66,2.05-.26,3.53c.11,.39,.18,.76,.21,1.13-1.5-2.95-1.87-5.76-1.42-9.18,0-.11,.11-.34,.24-.61,.29-.68,.79-1.82,.92-3.08,.16-1.53-.32-2.37-.53-2.66,.39-.47,.82-.95,1.21-1.45,1.39-1.63,2.82-3.34,3.89-5.08,.05-.11,.05-.24,.05-.37,.03-.13,.03-.29,.08-.37,.45-.68,1.11-1.47,1.74-2.16,.74-.71,1.6-1.32,2.42-1.79,.42,1.32,.84,3.66-.24,6.63Z"/>
      <path class="cls-2" d="M258.98,46.28c-1.74,11.21-16.89,14.44-22.94,4.37-.66-1.45-1.08-2.95-1.21-4.5-.21-6.76,5.31-12.13,12.34-12.13,6.97,.13,12.39,5.79,11.81,12.26Z"/>
      <path class="cls-1" d="M179.65,10.74c-.08,0-.16,.03-.24,.03-.58,.13-3.84,.68-4.42,.71-.05,0-.11,0-.11-.03-.05-.08,.05-.37,.08-.45,.03-.03,.03-.08,.03-.11,.08-.11,.82-.71,1.45-1.26,.76-.66,1.63-1.37,1.95-1.71,.68-.68,.95-1.11,.92-1.42,0-.13-.08-.24-.16-.32s-.24-.11-.39-.11c-.11,0-.21,0-.32,.05-.74,.21-1.97,1.05-2.71,1.71-.89,.84-2.63,1.66-3.18,1.66-.03,0-.03-.03-.05-.03-.26-.13-.42-1.92-.5-2.89-.05-.66-.11-1.21-.18-1.5-.18-.87-.34-1.47-.84-1.47h-.13c-.45,.08-.63,.97-.76,3.6-.11,1.74-.53,3.53-1.11,4.5-.16,.29-.37,.68-.58,1.11-.47,.92-1.03,1.97-1.39,2.47-2.92,3.66-7.47,7.58-11.5,10.95-2.26,1.89-3.71,5.42-3.84,5.81-.21,.18-1.76,1.82-2.37,2.32-.32,.24-.61,.63-.89,1.05-.39,.55-.79,1.13-1.18,1.24-.42,.13-.68,.55-.97,1.03-.26,.42-.53,.89-.97,1.18-.53,.37-.82,.68-1.11,1-.26,.26-.55,.55-.97,.89-.71,.55-2.53,.97-3.26,1.13,.13-.26,.26-.68,.18-1.05l-.05-.18c-.21-1-.61-2.92-1.11-3.63-.18-.24-.5-.82-.63-1.05,.24-.26,.34-.5,.32-.74-.05-.39-.47-.66-.82-.89-.29-.16-.55-.32-.55-.47l-.03-1.13-.58-1.08c.24-.24,.95-.87,1.18-1.13,.42-.45,1.24-2-.18-3.45-.55-.61-1.34-.89-2.32-.89-.92,0-1.63,.26-1.71,.29l-2.21,1.55c-.24-.03-1.11-.08-1.82-.08-.37,0-.66,.03-.84,.05-5.97,1.13-8.02,4.18-6.92,10.26,.39,2.32,2.24,4.1,2.95,4.34,.42,.16,1.71,2.42,2.39,3.79l1.24,3.39c-.47,.18-1.95,.76-2.55,1-.71,.26-4.84,2.08-6.74,3.13-.32,.16-.61,.32-.89,.47-1.5,.79-2.76,1.47-3.92,2.55-1.21,1.11-4.13,2.05-4.76,2.24-.87-1.18-1.55-2.32-2.08-3.39-1.5-2.95-1.87-5.76-1.42-9.18,0-.11,.11-.34,.24-.61,.29-.68,.79-1.82,.92-3.08,.16-1.53-.32-2.37-.53-2.66,.39-.47,.82-.95,1.21-1.45,1.39-1.63,2.82-3.34,3.89-5.08,.05-.11,.05-.24,.05-.37,.03-.13,.03-.29,.08-.37,.45-.68,1.11-1.47,1.74-2.16,.74-.71,1.6-1.32,2.42-1.79,.37-.24,.74-.45,1.05-.63,.24-.13,.42-.26,.58-.37,.74-.42,3.03-1.42,5.37-2.32,5.34-2.05,8.31-3.34,12.23-8.16,2.45-3,3.66-6.95,3.16-10.29-.34-2.37-1.55-4.34-3.5-5.71-1.03-.74-2.13-1.18-3.34-1.39-.66-.13-1.29-.18-1.95-.18-3.68,0-7.55,2.11-10.39,5.66-3.42,4.32-4.34,8.26-4.68,13.23-.16,2.13-.63,4.26-1.45,6.42-.21,.58-.45,1.18-.71,1.76-.58,1.29-2.53,4.18-2.79,4.6l-.68,.18-2.68,3.21c-.13-.32-.39-.79-.82-.79-.13,0-.24,.03-.34,.11-.68,.39-.71,2.53-.68,3.05l-.5,.68c-.16-.18-.45-.39-1-.39-.11,0-.21,.03-.32,.03-.32,.05-.55,.18-.71,.42-.29,.37-.29,.92-.26,1.21h-.08c-.26,0-.66,.05-1.08,.37-.37,.29-.45,.47-.47,.63-.05,.13-.05,.18-.29,.26-.95,.42-1.16,1.16-1.32,1.84-.53,2.16,.37,3.03,.92,3.55,.16,.13,.29,.26,.32,.39,.95,2.89,1,6,1.05,9.29,.03,2.66,.05,5.39,.61,8.02,.39,1.82,1.16,4.16,2.58,5.03,.16,.11,.34,.18,.53,.24,.74,.26,1.68,.34,2.42,.34,.97,0,1.92-.13,2.26-.24l.16-.03c.63-.18,1.29-.37,2.24-.42h.13c.37,0,.87,.05,1.47,.16,.74,.08,1.58,.21,2.39,.21,.45,0,.82-.03,1.16-.11,.87-.16,1.71-.55,2.47-.87,.79-.37,1.53-.68,2.1-.68,1,0,2.42,2.24,3.03,4.26,.29,1.03,.63,1.63,.95,2.21,.32,.58,.63,1.13,.89,2.08,.58,2.03,1.05,3.92,1.42,5.74,.34,1.71,.58,3.34,.68,4.97,.13,1.76,.11,3.53-.13,5.31-.11,.79-.21,1.5-.29,2.18h37.36c-.16-.29-.32-.61-.47-.92-.82-1.61-1.74-3.42-2.71-4-1.11-.66-1.76-2.16-2.32-3.47-.26-.58-.5-1.13-.76-1.58,.05-.03,.32-.08,.53-.11,.95-.11,2.66-.29,2.63-2.55-.03-1.32-2.1-7.21-3.42-9.87-.18-.37-.34-.66-.47-.87-.66-1.03-1.16-3.16-1.63-5.05-.18-.74-.34-1.42-.5-2.05-.21-.71-.39-1.32-.61-1.71-.82-1.58-1.05-3.03-.97-5.95,.05-2.76,1.08-10.81,1.39-11.55,.13-.24,.84-.84,1.6-1.47,1.63-1.34,3.66-3.03,3.63-4.08-.03-1.37-1.76-3.24-2.18-3.68l2.79-4.13c.89-1.32,1.87-2.68,2.79-3.97,1.74-2.45,3.53-4.97,5.13-7.63,.24-.42,1-.87,1.89-1.39,1.16-.71,2.58-1.58,3.37-2.71,.39,.08,1.76,.34,2.47,.39h.08c.58,0,.87-.21,.92-.42,.05-.18-.03-.37-.21-.5-.24-.16-.89-.37-1.58-.61-.5-.18-1.05-.37-1.26-.47-.08-.05-.08-.08-.08-.08,0-.05,.13-.16,.24-.21,0,0,2.92-1.03,4.1-1.45,.45-.18,.74-.58,.66-.92-.03-.24-.26-.39-.55-.39Zm-60.59-2.45c1.39-2.16,5.24-7.16,10.68-7.16,1.37,0,2.76,.34,4.1,1,.66,.34,1.24,.79,1.74,1.34,3.16,3.45,1.89,9.13-.95,12.97-.47,.63-1,1.26-1.58,1.84-2.6,2.74-6.87,5.5-10.5,5.5-.71,0-1.37-.11-2-.32-.61-.18-1.16-.47-1.63-.87-2.1-1.76-2.47-4.47-2.5-5.92-.08-2.71,.87-5.68,2.63-8.39Zm-4.45,18.42c.21-.55,.39-1.08,.5-1.34,.11-.42,.39-1.47,.63-2.42,.13-.55,.26-1.11,.34-1.39,.08,.08,.13,.16,.18,.26,.39,.55,1.03,1.5,1.82,2.1,.68,.53,1.55,.82,2.03,.97-.92,.47-3.08,1.58-4.79,2.66-.53,.32-1,.63-1.37,.92,.18-.47,.42-1.13,.66-1.76Z"/>
      <path class="cls-2" d="M121.11,111.64v.05c-.11-.03-.21-.05-.32-.05h.32Z"/>
      <path class="cls-2" d="M262.82,154.37c5.45-17.81,9.58-36.39,12.37-55.6,.24-1.53,.45-3.08,.66-4.63h-53.02c-.61-.55-1.45-1.03-2.45-1.66-1.45-.95-2.89-2.05-4.37-2.97-3.76-1.66-7.79-3.42-11.68-4.74-.87-.21,2.13-1.63,2.16-1.63,2.18-1.21,6.13-2.89,8.76-2.89,.47,.16,1.13,.26,1.68,.18,5.37-2.1,10.68-4.55,16.31-6.05,1.21-.32,1.95-.92,3.1-.32,1.97,.13,2.24,1.5,3.76,2.58,2.37,2.47,5.26-.92,6.92-2.34,1.32-1.92,3.26-2.18,5.13-3.26,.39-.45,1.13-1.71,1.89-1.16,.58,.39,1.92-.71,2.37-1.03,.5-.37-.92-.71-.63-1.26,.68-1.5,1.92-.11,2.24-.71,.03-.29,1-1.21,.53-1.39-3.05-1.32,1.34-2.26,.32-3.87-.89-.63-1.76-1.34-2.95-1.53-3.92,.16-7.08,1.66-10.18,3.82-.63,.32-1.26,.55-1.89,.61-1.5,.58-3.05,1.13-4.47,1.84-1.13,.82-4.1,.47-5.58,.47-2.74,.18-5.74,0-8.39,.42-5.26,.37-9.24-.29-13.55,3.21-.42,.39-1,.63-1.6,.63-.26,.03-3.26,.63-3.26,.26-.05-.45,.29-.55,.61-.71,1.05-.26,2.08-.61,3.03-1.08,2.03-2.21,4.5-4.13,7.6-4.79,4.08-.58,8.31-1.79,12.34-2.66,2.29,0,.71-8,.32-9.16-1.21-3.1-2.08-6.39-3.39-9.47-.21-.34-.34-.82-.34-1.26,.55-1.82-.55-3.66,.32-5.24,.03-.79,.03-1.55-.16-2.32,0-.58-1.84-.37-2.18-1.16-.68-.82-2,.45-2.16-.16-.37-.87-1.11-.84-1.89-.92-.53-.26-1.16-.39-1.63,.05-.29,.24-.95-.05-1.39-.03-1.37,0-1.63,2.71-.29,2.08,.89-.24,1.68,1.84,1.84,2.42-.34,2.42-1.08,.11-1.58-.53-.18-.42-1.18-.95-1.5-.5-.29,.74,.53,1.97,.58,2.84,0,1.5,1.87,1.66,3,1.97,.97,.45,1.53,.97,2.16,1.79,.68,.39,1.58,7.71,1.5,8.81-.37,1.55-.68,3.05-1.03,4.6,0,1.42-2.08,1-2.89,.63-.03-.11-.08-.16-.18-.16-1.79,.24-3.6,.32-5.45,.29-1.32,.21-2.66,.11-3.89-.29-.92-.58-2.13-.21-3.1-.71-1.03-.89-3.47,1.11-5.16-.47-2.26-.82-.63-.53-.63-2.18,1.53-4.18,.55-9.66-.18-13.89,.16-1.89-1.74-3.55-3.5-4.08-5.71-2.39-11.52,.82-11.52,6.76,.29,.84,.05,1.76-.03,2.6-.61,.87,.32,5.13,1.32,5.58,.24,.05,.63,.11,.63,.42-.21,.47,.13,1.45-.5,1.45-2.55-.95-4.08-2.08-6.92-1.16-1.42,.42-3.05-.97-4.13,.26-.89,.87-1.82,1.63-2.79,2.45-1.16,.39-3.45,1.16-4.03,2.26-.76,1.16-2.5,1.79-3.71,2.45-.55,.45-1.53,.18-1.89,.92-.45,.71-3.03,.47-2.18,1.87,0,.76-2.92,1.68-3.58,1.97-.82,.21-1.6,.47-2.37,.74,.16,.63,.32,1.32,.5,2.05,.47,1.89,.97,4.03,1.63,5.05,.13,.21,.29,.5,.47,.87,2.08-1.21,4.13-3.05,6.45-3.63,.63-.16,.55,1.13,1.34,.87,1.5-.76,3.13-1.18,4.66-1.79,.21-.16,3.68-2.6,3.87-1.87,.08,.18,.13,.39,.16,.61,.34,1.47,.95,3,1.63,4.37,.24,1.11,.89,2.34,.16,3.32-1.11,.87-1.42,1.71-2.18,2.79-1.76,1.53-3.87,2.39-3.97,4.87-.29,1.18,.47,1.97,.34,3,.55,2.68,.58,5.87,2.37,8.21,.82,.66,1.68,1.26,2.6,1.76H92.91c-2-1.71-5.29-3.39-5.29-3.39,0,0,1.55-2.79,2.21-3.76,.66-.97,2.74-1.24,3.92-2.32,1.16-1.11,1.03-3.29,1.03-4.03s1.95-2.29,2.87-3.03c.89-.74,3.63-2.45,5.21-4.63,.71-1,1.24-2.47,1.58-3.97-.18-.05-.37-.13-.53-.24-1.42-.87-2.18-3.21-2.58-5.03-.55-2.63-.58-5.37-.61-8.02-.05-3.29-.11-6.39-1.05-9.29-.03-.13-.16-.26-.32-.39-.55-.53-1.45-1.39-.92-3.55,.16-.68,.37-1.42,1.32-1.84,.24-.08,.24-.13,.29-.26,.03-.16,.11-.34,.47-.63,.42-.32,.82-.37,1.08-.37h.08c-.03-.29-.03-.84,.26-1.21,.16-.24,.39-.37,.71-.42,.11,0,.21-.03,.32-.03,.55,0,.84,.21,1,.39l.5-.68c-.03-.53,0-2.66,.68-3.05,.11-.08,.21-.11,.34-.11,.42,0,.68,.47,.82,.79l2.68-3.21,.68-.18c.26-.42,2.21-3.32,2.79-4.6,.26-.58,.5-1.18,.71-1.76-2.53-2.08-5.42-3.16-5.89-3.24-.66-.13-.53-.97-.13-1.95,.39-.97,1.03-1.58,1.03-1.58,0,0,1.18,.24,1.71-.24,1.87-1.76,.76-3.66,.76-3.66,.39-1.82,.13-3.89-.63-5.84-.79-1.95-2.6-3.39-4.95-4-2.34-.61-4.68,.37-5.47,1.34s-2.34,3.03-3.63,5.58c-1.32,2.55-.92,3.53-.79,4.03,.13,.47-.26,1.58-.66,2.55-.39,.97-.76,1.68-1.29,1.68s-2.47,.13-2.47,.13c-1.82-.5-5.6-.61-7.16-.37-1.55,.24-5.34,2.92-5.34,2.92,0,0-1.55-.13-2.21-.5-.66-.34-2.47-1.82-2.87-2.05-.39-.24-.26-2.55,0-3.66,.26-1.08-.13-2.05-.13-3.26s-.13-1.84-.5-2.21c-.39-.34-.66-1.68-1.05-1.82-.05-.03-.11,0-.18,.03-1.34-4.63-5.87-8.05-11.26-8.05-6.47,0-11.71,4.89-11.71,10.95,0,.32,.03,.63,.05,.95-.03,.03-.05,.03-.05,.03-.53,.24-.26,1.45,.26,1.58,.03,0,.05,.03,.08,.03,.18,.76,.47,1.47,.82,2.16l-.26,.24s-.26,.63-.26,1.11,.53,.84,1.45,.97c.32,.05,.63,.13,.92,.24,.45,.5,.97,.95,1.53,1.34,.45,.55,1.05,1.21,1.58,1.58,1.05,.74,3.79,.84,4.29,1.11,.53,.24,.66,.11,1.45,2.29,1.53,4.29,4.03,5.1,5.31,5.97,1.32,.84,3.53,1.08,3.53,1.08,0,0,.79,.5,2.08,.61,1.29,.13,4.68,.13,5.6,.13s1.42-.84,1.42-.84l1.18,1.08s.13,.74,0,1.34-.92,3.53-1.32,5.6c-.39,2.05-1.55,8.13-1.55,8.97s-.13,2.21-1.18,2.92c-1.03,.74-3.37,2.08-4.29,2.92-.89,.84-.89,1.58-.89,2.08,0,.47-1.18,2.05-2.6,3.53-1.45,1.45-8.74,9.1-9.13,9.6-.37,.47-.76,.71,.53,1.45,1.32,.74,7.42,4.26,7.42,4.26,0,0-.26,.47-.66,1.08-.39,.61-.63,2.08-.89,4.03-.26,1.95,.89,6.31,.89,6.92s-.58,3.76-.87,5.71H31.23c.21,1.55,.42,3.1,.66,4.63,2.79,19.21,6.92,37.78,12.37,55.6H0v102.69H96.8c5.97,7.71,12.37,15.18,19.02,22.26,9.08,9.66,18.94,18.87,29.31,27.39l8.39,6.89,8.42-6.89c10.37-8.52,20.23-17.73,29.31-27.39,6.66-7.08,13.05-14.55,19.02-22.26h96.8v-102.69h-44.26Zm37.89,96.75h-93.72l2.05,1.74-.18,.34h-3.47c-5.89,7.71-12.26,15.16-18.92,22.21-8.89,9.47-18.55,18.5-28.73,26.86l-4.21,3.45-4.18-3.45c-10.18-8.37-19.86-17.39-28.73-26.86-6.66-7.05-13.02-14.5-18.94-22.21h-.84l-.76-2.08H6.37v-90.8H52.78c-2.42-7.34-4.63-14.81-6.58-22.44-.66-2.53-1.29-5.08-1.89-7.66-.84-3.55-1.63-7.1-2.34-10.71-.32-1.53-.63-3.05-.92-4.58-.92-4.82-1.76-9.68-2.5-14.6h229.99c-.74,4.92-1.58,9.79-2.5,14.6-.29,1.53-.61,3.05-.92,4.58-2.84,14.02-6.47,27.63-10.81,40.81h46.41v90.8Z"/>
      <path class="cls-1" d="M12.71,166.23v78.93H294.37v-78.93H12.71Zm21.63,71.38c-6.53,0-13.66-1.76-17.26-3.97l2.21-6.71c3.89,2.21,9.63,4.05,15.66,4.05,8.95,0,14.18-4.32,14.18-10.58,0-5.79-3.63-9.1-12.76-12.31-11.05-3.58-17.89-8.81-17.89-17.55,0-9.66,8.74-16.81,21.89-16.81,6.95,0,11.97,1.47,14.97,3.03l-2.39,6.53c-2.21-1.11-6.74-2.95-12.87-2.95-9.24,0-12.76,5.05-12.76,9.29,0,5.79,4.13,8.63,13.47,11.95,11.45,4.05,17.29,9.1,17.29,18.21,0,9.55-7.76,17.84-23.73,17.84Zm72.15-31.99c-4.63,4.5-12.16,6.79-20.71,6.79-2.6,0-5.03-.08-7.03-.55v24.84h-8.74v-61.23c4.21-.63,9.74-1.18,16.79-1.18,8.63,0,14.97,1.84,18.97,5.13,3.74,2.95,5.95,7.45,5.95,12.97s-1.82,10.02-5.24,13.23Zm43.41,32.07c-17.89,0-30.44-12.68-30.44-31.44s13.37-32.52,31.44-32.52,30.44,12.95,30.44,31.34c0,21.31-14.18,32.63-31.44,32.63Zm77.85-1c-1.11-1.76-2.6-7.08-4.53-14.81-2-8.55-5.63-11.76-13.55-12.02h-8.24v26.84h-8.76v-61.12c4.42-.84,10.76-1.29,16.79-1.29,9.34,0,15.37,1.55,19.6,5.05,3.42,2.76,5.31,6.97,5.31,11.76,0,8.18-5.63,13.6-12.76,15.81v.26c5.24,1.66,8.34,6.08,9.95,12.5,2.21,8.66,3.82,14.63,5.24,17.02h-9.05Zm62.31-55.15h-20.71v55.15h-8.84v-55.15h-20.6v-6.81h50.15v6.81Z"/>
      <path class="cls-1" d="M102.96,192.76c0,8.55-6.42,13.23-16.97,13.23-2.92,0-5.31-.18-7.24-.66v-24.07c1.5-.37,4.42-.63,8.24-.63,9.66,0,15.97,3.95,15.97,12.13Z"/>
      <path class="cls-1" d="M172.1,205.44c0,14.05-7.84,25.73-21.71,25.73s-21.6-11.87-21.6-25.1,7.24-25.81,21.71-25.81,21.6,12.87,21.6,25.18Z"/>
      <path class="cls-1" d="M225.65,192.02c0,7.08-5.92,11.76-15.29,11.76h-8.92v-22.6c1.39-.37,4.42-.74,8.63-.74,9.24,.08,15.58,3.58,15.58,11.58Z"/>
      <path class="cls-1" d="M100.06,251.11c.53,.71,1.05,1.39,1.6,2.08,5.92,7.71,12.29,15.16,18.94,22.21,8.87,9.47,18.55,18.5,28.73,26.86l4.18,3.45,4.21-3.45c10.18-8.37,19.84-17.39,28.73-26.86,6.66-7.05,13.02-14.5,18.92-22.21,.55-.68,1.08-1.37,1.61-2.08H100.06Zm72.7,29.49h-13.23v12.37h-11.97v-12.37h-13.23v-11.21h13.23v-12.34h11.97v12.34h13.23v11.21Z"/>
      <path class="cls-2" d="M101.67,253.19h-.84l-.76-2.08c.53,.71,1.05,1.39,1.6,2.08Z"/>
      <path class="cls-2" d="M209.04,252.85l-.18,.34h-3.47c.55-.68,1.08-1.37,1.61-2.08l2.05,1.74Z"/>
      <path class="cls-1" d="M242.09,153.37l-15.92-41.94h7.08v-6.71h-30.57v6.71h7.05l-15.84,41.94h-7.1v6.95h23.34v-6.95h-7.45l4.55-12.6h21.36l4.58,12.6h-7.71v6.95h23.21v-6.95h-6.58Zm-32.55-19.15l8.31-22.79h.26l8.13,22.79h-16.71Z"/>
      <polygon class="cls-1" points="189.31 104.72 189.31 125.03 182.05 125.03 182.05 111.64 169.92 111.64 169.92 153.37 177.55 153.37 177.55 160.31 153.5 160.31 153.5 153.37 161 153.37 161 111.64 148.95 111.64 148.95 125.03 141.69 125.03 141.69 104.72 189.31 104.72"/>
      <polygon class="cls-1" points="130 111.64 130 153.37 136.4 153.37 136.4 160.31 114.74 160.31 114.74 153.37 121.11 153.37 121.11 111.64 114.74 111.64 114.74 104.72 136.4 104.72 136.4 111.64 130 111.64"/>
      <polygon class="cls-1" points="110.4 104.72 110.4 111.59 103.38 111.59 103.22 111.95 100.75 118.16 98.27 124.4 98.25 124.4 83.93 160.31 75.78 160.31 56.02 111.59 48.75 111.59 48.75 104.72 71.94 104.72 71.94 111.59 65.15 111.59 80.2 148.95 90.72 121.9 93.96 113.64 94.75 111.59 87.96 111.59 87.96 104.72 110.4 104.72"/>
    </g>
  </g>
</svg>