<?xml version="1.0" encoding="UTF-8"?>
<svg id="Capa_2" data-name="Capa 2" xmlns="http://www.w3.org/2000/svg" viewBox="0 0 754.48 232.23">
  <defs>
    <style>
      .cls-1 {
        fill: #1d1d1b;
      }
    </style>
  </defs>
  <g id="Capa_1-2" data-name="Capa 1">
    <g>
      <path class="cls-1" d="M0,74.4v-9.85l49.37-18.99v5.46L0,32.04v-9.85l53.16,21v10.21L0,74.4Z"/>
      <path class="cls-1" d="M85.44,89.83h-11.87V6.76h11.87V89.83Zm48.77-37.02h-49.96v-10.32h49.96v10.32Zm-1.07-46.04h11.87V89.83h-11.87V6.76Z"/>
      <path class="cls-1" d="M173.96,14.83c-2.22,0-4.05-.71-5.52-2.14-1.46-1.42-2.2-3.16-2.2-5.22s.73-3.92,2.2-5.34c1.46-1.42,3.3-2.14,5.52-2.14s4.05,.69,5.52,2.08c1.46,1.39,2.2,3.11,2.2,5.16s-.71,3.94-2.14,5.4c-1.42,1.46-3.28,2.2-5.58,2.2Zm-5.7,75V26.94h11.39v62.89h-11.39Z"/>
      <path class="cls-1" d="M227.48,87.22c-6.09,0-11.53-1.28-16.32-3.86-4.79-2.57-8.58-6.15-11.39-10.74-2.81-4.59-4.21-9.89-4.21-15.9s1.4-11.41,4.21-15.96c2.81-4.55,6.6-8.09,11.39-10.62,4.79-2.53,10.22-3.8,16.32-3.8,5.38,0,10.28,1.09,14.71,3.26,4.43,2.18,7.97,5.52,10.62,10.03,2.65,4.51,3.98,10.21,3.98,17.09s-1.33,12.46-3.98,16.97c-2.65,4.51-6.19,7.89-10.62,10.15-4.43,2.25-9.34,3.38-14.71,3.38Zm1.42,26.34c-5.78,0-11.37-.81-16.79-2.43-5.42-1.62-9.83-3.94-13.23-6.94l5.46-8.78c2.93,2.53,6.53,4.53,10.8,5.99,4.27,1.46,8.74,2.2,13.41,2.2,7.44,0,12.89-1.74,16.38-5.22,3.48-3.48,5.22-8.78,5.22-15.9v-13.29l1.19-12.46-.59-12.58V26.94h10.8v54.35c0,11.07-2.77,19.22-8.31,24.45-5.54,5.22-13.65,7.83-24.33,7.83Zm-.12-36.31c4.19,0,7.91-.87,11.15-2.61,3.24-1.74,5.79-4.15,7.65-7.24,1.86-3.09,2.79-6.65,2.79-10.68s-.93-7.59-2.79-10.68c-1.86-3.09-4.41-5.48-7.65-7.18-3.24-1.7-6.96-2.55-11.15-2.55s-7.93,.85-11.21,2.55c-3.28,1.7-5.86,4.09-7.71,7.18-1.86,3.09-2.79,6.65-2.79,10.68s.93,7.59,2.79,10.68c1.86,3.09,4.43,5.5,7.71,7.24,3.28,1.74,7.02,2.61,11.21,2.61Z"/>
      <path class="cls-1" d="M316.84,26.34c5.14,0,9.67,.99,13.59,2.97,3.92,1.98,6.98,4.98,9.2,9.02,2.21,4.03,3.32,9.14,3.32,15.31v36.19h-11.39V54.94c0-6.09-1.48-10.68-4.45-13.77s-7.14-4.63-12.52-4.63c-4.03,0-7.56,.79-10.56,2.37-3.01,1.58-5.32,3.92-6.94,7-1.62,3.09-2.43,6.92-2.43,11.51v32.4h-11.39V1.78h11.39V43.91l-2.25-4.51c2.06-4.11,5.22-7.32,9.49-9.61,4.27-2.29,9.26-3.44,14.95-3.44Z"/>
      <path class="cls-1" d="M365.73,89.83V6.76h37.26c9.57,0,16.93,1.92,22.07,5.76,5.14,3.84,7.71,9.08,7.71,15.72,0,4.51-1.01,8.31-3.03,11.39-2.02,3.08-4.73,5.46-8.13,7.12-3.4,1.66-7.08,2.49-11.04,2.49l2.14-3.56c4.75,0,8.94,.83,12.58,2.49,3.64,1.66,6.53,4.09,8.66,7.3,2.14,3.2,3.2,7.18,3.2,11.93,0,7.12-2.67,12.64-8.01,16.55-5.34,3.92-13.27,5.87-23.79,5.87h-39.64Zm11.87-9.61h27.29c6.57,0,11.59-1.11,15.07-3.32,3.48-2.21,5.22-5.7,5.22-10.44s-1.74-8.35-5.22-10.56c-3.48-2.21-8.51-3.32-15.07-3.32h-28.36v-9.61h25.4c6.01,0,10.68-1.11,14-3.32,3.32-2.21,4.98-5.54,4.98-9.97s-1.66-7.75-4.98-9.97c-3.32-2.21-7.99-3.32-14-3.32h-24.33v63.84Z"/>
      <path class="cls-1" d="M453.9,89.83V26.94h10.92v17.09l-1.07-4.27c1.74-4.35,4.67-7.67,8.78-9.97,4.11-2.29,9.18-3.44,15.19-3.44v11.04c-.47-.08-.93-.12-1.36-.12h-1.25c-6.09,0-10.92,1.82-14.48,5.46-3.56,3.64-5.34,8.9-5.34,15.78v31.33h-11.39Z"/>
      <path class="cls-1" d="M507.42,14.83c-2.22,0-4.06-.71-5.52-2.14-1.46-1.42-2.2-3.16-2.2-5.22s.73-3.92,2.2-5.34c1.46-1.42,3.3-2.14,5.52-2.14s4.05,.69,5.52,2.08c1.46,1.39,2.2,3.11,2.2,5.16s-.71,3.94-2.14,5.4c-1.42,1.46-3.28,2.2-5.58,2.2Zm-5.7,75V26.94h11.39v62.89h-11.39Z"/>
      <path class="cls-1" d="M560.82,90.54c-6.09,0-11.53-1.34-16.32-4.03-4.79-2.69-8.56-6.45-11.33-11.27-2.77-4.82-4.15-10.44-4.15-16.85s1.38-12,4.15-16.79c2.77-4.79,6.54-8.52,11.33-11.21,4.79-2.69,10.22-4.03,16.32-4.03,5.3,0,10.09,1.19,14.36,3.56,4.27,2.37,7.69,5.93,10.26,10.68,2.57,4.75,3.86,10.68,3.86,17.8s-1.25,13.05-3.74,17.8c-2.49,4.75-5.87,8.33-10.15,10.74-4.27,2.41-9.14,3.62-14.6,3.62Zm.95-9.97c3.96,0,7.54-.91,10.74-2.73,3.2-1.82,5.74-4.41,7.59-7.77,1.86-3.36,2.79-7.26,2.79-11.69s-.93-8.41-2.79-11.69c-1.86-3.28-4.39-5.83-7.59-7.65-3.2-1.82-6.78-2.73-10.74-2.73s-7.64,.91-10.8,2.73c-3.17,1.82-5.7,4.37-7.59,7.65-1.9,3.28-2.85,7.18-2.85,11.69s.95,8.33,2.85,11.69c1.9,3.36,4.43,5.95,7.59,7.77,3.16,1.82,6.76,2.73,10.8,2.73Zm21.48,9.26v-16.97l.71-14.6-1.19-14.6V1.78h11.39V89.83h-10.92Z"/>
      <path class="cls-1" d="M641.87,87.22c-6.09,0-11.53-1.28-16.32-3.86-4.79-2.57-8.58-6.15-11.39-10.74-2.81-4.59-4.21-9.89-4.21-15.9s1.4-11.41,4.21-15.96c2.81-4.55,6.61-8.09,11.39-10.62,4.79-2.53,10.22-3.8,16.32-3.8,5.38,0,10.28,1.09,14.71,3.26,4.43,2.18,7.97,5.52,10.62,10.03,2.65,4.51,3.98,10.21,3.98,17.09s-1.33,12.46-3.98,16.97c-2.65,4.51-6.19,7.89-10.62,10.15-4.43,2.25-9.33,3.38-14.71,3.38Zm1.42,26.34c-5.78,0-11.37-.81-16.79-2.43-5.42-1.62-9.83-3.94-13.23-6.94l5.46-8.78c2.93,2.53,6.53,4.53,10.8,5.99,4.27,1.46,8.74,2.2,13.41,2.2,7.44,0,12.89-1.74,16.38-5.22,3.48-3.48,5.22-8.78,5.22-15.9v-13.29l1.19-12.46-.59-12.58V26.94h10.8v54.35c0,11.07-2.77,19.22-8.31,24.45-5.54,5.22-13.65,7.83-24.33,7.83Zm-.12-36.31c4.19,0,7.91-.87,11.16-2.61,3.24-1.74,5.79-4.15,7.65-7.24,1.86-3.09,2.79-6.65,2.79-10.68s-.93-7.59-2.79-10.68c-1.86-3.09-4.41-5.48-7.65-7.18-3.25-1.7-6.96-2.55-11.16-2.55s-7.93,.85-11.21,2.55c-3.28,1.7-5.86,4.09-7.71,7.18-1.86,3.09-2.79,6.65-2.79,10.68s.93,7.59,2.79,10.68c1.86,3.09,4.43,5.5,7.71,7.24,3.28,1.74,7.02,2.61,11.21,2.61Z"/>
      <path class="cls-1" d="M725.65,90.54c-6.73,0-12.64-1.38-17.74-4.15-5.1-2.77-9.06-6.57-11.87-11.39-2.81-4.82-4.21-10.36-4.21-16.61s1.36-11.79,4.09-16.61c2.73-4.82,6.49-8.6,11.27-11.33,4.79-2.73,10.18-4.09,16.2-4.09s11.47,1.35,16.14,4.03c4.67,2.69,8.33,6.47,10.98,11.33,2.65,4.87,3.98,10.54,3.98,17.03,0,.47-.02,1.03-.06,1.66-.04,.63-.1,1.23-.18,1.78h-53.52v-8.19h47.59l-4.63,2.85c.08-4.03-.75-7.63-2.49-10.8-1.74-3.16-4.13-5.64-7.18-7.42-3.05-1.78-6.59-2.67-10.62-2.67s-7.48,.89-10.56,2.67c-3.08,1.78-5.5,4.27-7.24,7.48-1.74,3.2-2.61,6.86-2.61,10.98v1.9c0,4.19,.97,7.93,2.91,11.21,1.94,3.28,4.65,5.84,8.13,7.65,3.48,1.82,7.48,2.73,11.99,2.73,3.72,0,7.1-.63,10.15-1.9,3.04-1.26,5.71-3.16,8.01-5.7l6.29,7.36c-2.85,3.32-6.39,5.86-10.62,7.59-4.23,1.74-8.96,2.61-14.18,2.61Z"/>
      <path class="cls-1" d="M68.35,208.5V125.43h35.01c8.86,0,16.67,1.74,23.44,5.22,6.76,3.48,12.02,8.35,15.78,14.6,3.76,6.25,5.64,13.49,5.64,21.72s-1.88,15.47-5.64,21.72c-3.76,6.25-9.02,11.12-15.78,14.6-6.76,3.48-14.58,5.22-23.44,5.22h-35.01Zm11.87-10.32h22.43c6.88,0,12.83-1.31,17.86-3.92,5.02-2.61,8.92-6.27,11.69-10.98,2.77-4.71,4.15-10.15,4.15-16.32s-1.39-11.71-4.15-16.38c-2.77-4.67-6.67-8.31-11.69-10.92-5.02-2.61-10.98-3.92-17.86-3.92h-22.43v62.42Z"/>
      <path class="cls-1" d="M192.71,209.21c-6.73,0-12.64-1.38-17.74-4.15-5.1-2.77-9.06-6.57-11.87-11.39-2.81-4.83-4.21-10.36-4.21-16.61s1.36-11.79,4.09-16.61c2.73-4.82,6.49-8.6,11.27-11.33,4.79-2.73,10.19-4.09,16.2-4.09s11.47,1.35,16.14,4.04c4.67,2.69,8.33,6.47,10.98,11.33,2.65,4.87,3.98,10.54,3.98,17.03,0,.47-.02,1.03-.06,1.66-.04,.63-.1,1.23-.18,1.78h-53.52v-8.19h47.59l-4.63,2.85c.08-4.04-.75-7.63-2.49-10.8-1.74-3.16-4.14-5.64-7.18-7.42-3.05-1.78-6.59-2.67-10.62-2.67s-7.48,.89-10.56,2.67-5.5,4.27-7.24,7.48c-1.74,3.2-2.61,6.86-2.61,10.98v1.9c0,4.19,.97,7.93,2.91,11.21,1.94,3.28,4.65,5.83,8.13,7.65,3.48,1.82,7.48,2.73,11.99,2.73,3.72,0,7.1-.63,10.15-1.9,3.04-1.26,5.71-3.16,8.01-5.7l6.29,7.36c-2.85,3.32-6.39,5.86-10.62,7.59-4.23,1.74-8.96,2.61-14.18,2.61Z"/>
      <path class="cls-1" d="M255.37,209.21c-5.22,0-10.19-.71-14.89-2.14-4.71-1.42-8.41-3.16-11.1-5.22l4.75-9.02c2.69,1.82,6.01,3.36,9.97,4.63,3.96,1.27,7.99,1.9,12.1,1.9,5.3,0,9.12-.75,11.45-2.25,2.33-1.5,3.5-3.6,3.5-6.29,0-1.98-.71-3.52-2.14-4.63-1.42-1.11-3.3-1.94-5.64-2.49-2.33-.55-4.92-1.05-7.77-1.48-2.85-.43-5.7-.99-8.54-1.66-2.85-.67-5.46-1.62-7.83-2.85-2.37-1.23-4.27-2.93-5.7-5.1-1.42-2.17-2.14-5.08-2.14-8.72s1.07-7.12,3.2-9.97c2.14-2.85,5.16-5.04,9.08-6.59,3.92-1.54,8.56-2.31,13.94-2.31,4.11,0,8.29,.5,12.52,1.48,4.23,.99,7.69,2.39,10.38,4.21l-4.87,9.02c-2.85-1.9-5.81-3.2-8.9-3.92s-6.17-1.07-9.26-1.07c-4.98,0-8.7,.81-11.15,2.43-2.45,1.62-3.68,3.7-3.68,6.23,0,2.14,.73,3.78,2.2,4.92,1.46,1.15,3.36,2.04,5.7,2.67,2.33,.63,4.92,1.17,7.77,1.6,2.85,.44,5.7,.99,8.54,1.66,2.85,.67,5.44,1.6,7.77,2.79,2.33,1.19,4.23,2.85,5.7,4.98,1.46,2.14,2.2,4.98,2.2,8.54,0,3.8-1.11,7.08-3.32,9.85-2.22,2.77-5.34,4.92-9.37,6.47-4.03,1.54-8.86,2.31-14.48,2.31Z"/>
      <path class="cls-1" d="M302.48,133.5c-2.22,0-4.05-.71-5.52-2.14-1.46-1.42-2.2-3.16-2.2-5.22s.73-3.92,2.2-5.34c1.46-1.42,3.3-2.14,5.52-2.14s4.05,.69,5.52,2.08c1.46,1.38,2.2,3.11,2.2,5.16s-.71,3.94-2.14,5.4c-1.42,1.46-3.28,2.2-5.58,2.2Zm-5.7,75v-62.89h11.39v62.89h-11.39Z"/>
      <path class="cls-1" d="M356,205.89c-6.09,0-11.53-1.29-16.32-3.86-4.79-2.57-8.58-6.15-11.39-10.74-2.81-4.59-4.21-9.89-4.21-15.9s1.4-11.41,4.21-15.96c2.81-4.55,6.6-8.09,11.39-10.62,4.79-2.53,10.22-3.8,16.32-3.8,5.38,0,10.28,1.09,14.71,3.26,4.43,2.18,7.97,5.52,10.62,10.03,2.65,4.51,3.98,10.21,3.98,17.09s-1.33,12.46-3.98,16.97c-2.65,4.51-6.19,7.89-10.62,10.15-4.43,2.25-9.34,3.38-14.71,3.38Zm1.42,26.34c-5.78,0-11.37-.81-16.79-2.43-5.42-1.62-9.83-3.94-13.23-6.94l5.46-8.78c2.93,2.53,6.53,4.53,10.8,5.99,4.27,1.46,8.74,2.2,13.41,2.2,7.44,0,12.89-1.74,16.38-5.22,3.48-3.48,5.22-8.78,5.22-15.9v-13.29l1.19-12.46-.59-12.58v-17.21h10.8v54.35c0,11.08-2.77,19.22-8.31,24.45-5.54,5.22-13.65,7.83-24.33,7.83Zm-.12-36.31c4.19,0,7.91-.87,11.15-2.61,3.24-1.74,5.79-4.15,7.65-7.24,1.86-3.08,2.79-6.64,2.79-10.68s-.93-7.59-2.79-10.68c-1.86-3.09-4.41-5.48-7.65-7.18-3.24-1.7-6.96-2.55-11.15-2.55s-7.93,.85-11.21,2.55c-3.28,1.7-5.86,4.09-7.71,7.18-1.86,3.08-2.79,6.65-2.79,10.68s.93,7.59,2.79,10.68c1.86,3.09,4.43,5.5,7.71,7.24,3.28,1.74,7.02,2.61,11.21,2.61Z"/>
      <path class="cls-1" d="M445.35,145.01c5.14,0,9.67,.99,13.59,2.97,3.92,1.98,6.98,4.98,9.2,9.02,2.21,4.04,3.32,9.14,3.32,15.31v36.19h-11.39v-34.89c0-6.09-1.48-10.68-4.45-13.77-2.97-3.08-7.14-4.63-12.52-4.63-4.03,0-7.56,.79-10.56,2.37-3.01,1.58-5.32,3.92-6.94,7-1.62,3.09-2.43,6.92-2.43,11.51v32.4h-11.39v-62.89h10.92v16.97l-1.78-4.51c2.06-4.11,5.22-7.32,9.49-9.61,4.27-2.29,9.26-3.44,14.95-3.44Z"/>
    </g>
  </g>
</svg>